<?xml version="1.0" encoding="UTF-8" standalone="no"?>
<!DOCTYPE svg PUBLIC "-//W3C//DTD SVG 1.1//EN"
 "http://www.w3.org/Graphics/SVG/1.1/DTD/svg11.dtd">
<!-- Generated by graphviz version 2.38.0 (20140413.2041)
 -->
<!-- Title: module Pages: 1 -->
<svg width="473pt" height="743pt"
 viewBox="0.00 0.00 473.39 743.00" xmlns="http://www.w3.org/2000/svg" xmlns:xlink="http://www.w3.org/1999/xlink">
<g id="graph0" class="graph" transform="scale(1 1) rotate(0) translate(4 739)">
<title>module</title>
<polygon fill="white" stroke="none" points="-4,4 -4,-739 469.393,-739 469.393,4 -4,4"/>
<!-- 0 -->
<g id="node1" class="node"><title>0</title>
<ellipse fill="none" stroke="black" cx="238.393" cy="-717" rx="39.7935" ry="18"/>
<text text-anchor="middle" x="238.393" y="-713.3" font-family="Times New Roman,serif" font-size="14.00">global.h</text>
</g>
<!-- 2 -->
<g id="node3" class="node"><title>2</title>
<ellipse fill="none" stroke="black" cx="381.393" cy="-543" rx="56.59" ry="18"/>
<text text-anchor="middle" x="381.393" y="-539.3" font-family="Times New Roman,serif" font-size="14.00">cnf_parser.c</text>
</g>
<!-- 0&#45;&gt;2 -->
<g id="edge1" class="edge"><title>0&#45;&gt;2</title>
<path fill="none" stroke="black" stroke-dasharray="5,2" d="M235.142,-698.869C231.933,-676.789 229.751,-638.137 247.393,-612 258.3,-595.842 302.14,-575.375 336.745,-561.137"/>
<polygon fill="black" stroke="black" points="338.272,-564.294 346.225,-557.295 335.643,-557.807 338.272,-564.294"/>
<text text-anchor="middle" x="268.893" y="-626.3" font-family="Microsoft YaHei" font-size="14.00">被引用</text>
</g>
<!-- 6 -->
<g id="node7" class="node"><title>6</title>
<ellipse fill="none" stroke="black" cx="354.393" cy="-630" rx="54.6905" ry="18"/>
<text text-anchor="middle" x="354.393" y="-626.3" font-family="Times New Roman,serif" font-size="14.00">sat_solver.c</text>
</g>
<!-- 0&#45;&gt;6 -->
<g id="edge9" class="edge"><title>0&#45;&gt;6</title>
<path fill="none" stroke="black" stroke-dasharray="5,2" d="M258.334,-701.388C276.553,-688.038 303.742,-668.115 324.548,-652.869"/>
<polygon fill="black" stroke="black" points="326.747,-655.597 332.745,-646.863 322.61,-649.951 326.747,-655.597"/>
<text text-anchor="middle" x="324.893" y="-669.8" font-family="Microsoft YaHei" font-size="14.00">被引用</text>
</g>
<!-- 7 -->
<g id="node8" class="node"><title>7</title>
<ellipse fill="none" stroke="black" cx="263.393" cy="-456" rx="50.0912" ry="18"/>
<text text-anchor="middle" x="263.393" y="-452.3" font-family="Times New Roman,serif" font-size="14.00">sat_main.c</text>
</g>
<!-- 0&#45;&gt;7 -->
<g id="edge6" class="edge"><title>0&#45;&gt;7</title>
<path fill="none" stroke="black" stroke-dasharray="5,2" d="M233.367,-699.042C231.86,-693.354 230.355,-686.946 229.393,-681 222.146,-636.17 216.23,-623.843 223.393,-579 228.833,-544.952 242.303,-507.507 252.113,-483.201"/>
<polygon fill="black" stroke="black" points="255.353,-484.526 255.929,-473.947 248.881,-481.857 255.353,-484.526"/>
<text text-anchor="middle" x="244.893" y="-582.8" font-family="Microsoft YaHei" font-size="14.00">被引用</text>
</g>
<!-- 1 -->
<g id="node2" class="node"><title>1</title>
<ellipse fill="none" stroke="black" cx="373.393" cy="-717" rx="64.189" ry="18"/>
<text text-anchor="middle" x="373.393" y="-713.3" font-family="Times New Roman,serif" font-size="14.00">bst_operator.c</text>
</g>
<!-- 1&#45;&gt;2 -->
<g id="edge2" class="edge"><title>1&#45;&gt;2</title>
<path fill="none" stroke="black" stroke-dasharray="5,2" d="M395.566,-699.784C401.515,-694.422 407.398,-688.014 411.393,-681 418.814,-667.972 416.829,-662.911 418.393,-648 421.594,-617.488 428.986,-606.976 416.393,-579 414.517,-574.832 411.91,-570.885 408.956,-567.248"/>
<polygon fill="black" stroke="black" points="411.443,-564.782 402.086,-559.812 406.302,-569.532 411.443,-564.782"/>
<text text-anchor="middle" x="443.893" y="-626.3" font-family="Microsoft YaHei" font-size="14.00">被引用</text>
</g>
<!-- 1&#45;&gt;6 -->
<g id="edge10" class="edge"><title>1&#45;&gt;6</title>
<path fill="none" stroke="black" stroke-dasharray="5,2" d="M369.548,-698.799C366.947,-687.163 363.457,-671.548 360.482,-658.237"/>
<polygon fill="black" stroke="black" points="363.83,-657.171 358.233,-648.175 356.998,-658.698 363.83,-657.171"/>
<text text-anchor="middle" x="385.893" y="-669.8" font-family="Microsoft YaHei" font-size="14.00">被引用</text>
</g>
<!-- 2&#45;&gt;7 -->
<g id="edge7" class="edge"><title>2&#45;&gt;7</title>
<path fill="none" stroke="black" stroke-dasharray="5,2" d="M359.475,-526.211C340.73,-512.708 313.586,-493.156 292.927,-478.274"/>
<polygon fill="black" stroke="black" points="294.956,-475.422 284.796,-472.417 290.865,-481.102 294.956,-475.422"/>
<text text-anchor="middle" x="351.893" y="-495.8" font-family="Microsoft YaHei" font-size="14.00">被引用</text>
</g>
<!-- 3 -->
<g id="node4" class="node"><title>3</title>
<ellipse fill="none" stroke="black" cx="98.3933" cy="-368.5" rx="56.59" ry="18"/>
<text text-anchor="middle" x="98.3933" y="-364.8" font-family="Times New Roman,serif" font-size="14.00">puzzle2cnf.c</text>
</g>
<!-- 4 -->
<g id="node5" class="node"><title>4</title>
<ellipse fill="none" stroke="black" cx="75.3933" cy="-281" rx="75.2868" ry="18"/>
<text text-anchor="middle" x="75.3933" y="-277.3" font-family="Times New Roman,serif" font-size="14.00">puzzle_generate.c</text>
</g>
<!-- 3&#45;&gt;4 -->
<g id="edge4" class="edge"><title>3&#45;&gt;4</title>
<path fill="none" stroke="black" stroke-dasharray="5,2" d="M79.1919,-351.233C74.0338,-345.715 69.131,-339.126 66.3933,-332 63.6098,-324.755 63.8034,-316.582 65.2563,-308.976"/>
<polygon fill="black" stroke="black" points="68.6961,-309.658 67.8567,-299.096 61.9267,-307.876 68.6961,-309.658"/>
<text text-anchor="middle" x="87.8933" y="-320.8" font-family="Microsoft YaHei" font-size="14.00">被引用</text>
</g>
<!-- 5 -->
<g id="node6" class="node"><title>5</title>
<ellipse fill="none" stroke="black" cx="231.393" cy="-281" rx="62.2891" ry="18"/>
<text text-anchor="middle" x="231.393" y="-277.3" font-family="Times New Roman,serif" font-size="14.00">puzzle_main.c</text>
</g>
<!-- 3&#45;&gt;5 -->
<g id="edge5" class="edge"><title>3&#45;&gt;5</title>
<path fill="none" stroke="black" stroke-dasharray="5,2" d="M106.311,-350.416C112.144,-339.504 121.029,-325.802 132.393,-317 144.338,-307.749 158.924,-300.819 173.19,-295.678"/>
<polygon fill="black" stroke="black" points="174.609,-298.893 182.978,-292.397 172.384,-292.256 174.609,-298.893"/>
<text text-anchor="middle" x="153.893" y="-320.8" font-family="Microsoft YaHei" font-size="14.00">被引用</text>
</g>
<!-- 9 -->
<g id="node10" class="node"><title>9</title>
<polygon fill="none" stroke="black" points="26.3933,-175.5 26.3933,-211.5 154.393,-211.5 154.393,-175.5 26.3933,-175.5"/>
<text text-anchor="middle" x="90.3933" y="-189.8" font-family="Times New Roman,serif" font-size="14.00">puzzle_generate.exe</text>
</g>
<!-- 4&#45;&gt;9 -->
<g id="edge16" class="edge"><title>4&#45;&gt;9</title>
<path fill="none" stroke="black" stroke-width="2" d="M78.4288,-262.698C80.4823,-250.993 83.2378,-235.286 85.5868,-221.897"/>
<polygon fill="black" stroke="black" stroke-width="2" points="89.0816,-222.231 87.3624,-211.776 82.1869,-221.021 89.0816,-222.231"/>
<text text-anchor="middle" x="98.8933" y="-233.8" font-family="Microsoft YaHei" font-size="14.00">编译</text>
</g>
<!-- 10 -->
<g id="node11" class="node"><title>10</title>
<polygon fill="none" stroke="black" points="177.393,-175.5 177.393,-211.5 285.393,-211.5 285.393,-175.5 177.393,-175.5"/>
<text text-anchor="middle" x="231.393" y="-189.8" font-family="Times New Roman,serif" font-size="14.00">puzzle_main.exe</text>
</g>
<!-- 5&#45;&gt;10 -->
<g id="edge17" class="edge"><title>5&#45;&gt;10</title>
<path fill="none" stroke="black" stroke-width="2" d="M231.393,-262.698C231.393,-250.993 231.393,-235.286 231.393,-221.897"/>
<polygon fill="black" stroke="black" stroke-width="2" points="234.893,-221.776 231.393,-211.776 227.893,-221.777 234.893,-221.776"/>
<text text-anchor="middle" x="245.893" y="-233.8" font-family="Microsoft YaHei" font-size="14.00">编译</text>
</g>
<!-- 6&#45;&gt;2 -->
<g id="edge3" class="edge"><title>6&#45;&gt;2</title>
<path fill="none" stroke="black" stroke-dasharray="5,2" d="M359.857,-611.799C363.59,-600.047 368.612,-584.238 372.867,-570.842"/>
<polygon fill="black" stroke="black" points="376.246,-571.766 375.938,-561.175 369.574,-569.647 376.246,-571.766"/>
<text text-anchor="middle" x="390.893" y="-582.8" font-family="Microsoft YaHei" font-size="14.00">被引用</text>
</g>
<!-- 6&#45;&gt;7 -->
<g id="edge8" class="edge"><title>6&#45;&gt;7</title>
<path fill="none" stroke="black" stroke-dasharray="5,2" d="M326.941,-614.147C308.137,-602.383 284.49,-584.101 272.393,-561 259.966,-537.269 258.889,-506.27 260.199,-484.308"/>
<polygon fill="black" stroke="black" points="263.689,-484.57 260.994,-474.324 256.711,-484.015 263.689,-484.57"/>
<text text-anchor="middle" x="293.893" y="-539.3" font-family="Microsoft YaHei" font-size="14.00">被引用</text>
</g>
<!-- 11 -->
<g id="node12" class="node"><title>11</title>
<polygon fill="none" stroke="black" points="218.893,-350.5 218.893,-386.5 307.893,-386.5 307.893,-350.5 218.893,-350.5"/>
<text text-anchor="middle" x="263.393" y="-364.8" font-family="Times New Roman,serif" font-size="14.00">sat_main.exe</text>
</g>
<!-- 7&#45;&gt;11 -->
<g id="edge18" class="edge"><title>7&#45;&gt;11</title>
<path fill="none" stroke="black" stroke-width="2" d="M263.393,-437.698C263.393,-425.993 263.393,-410.286 263.393,-396.897"/>
<polygon fill="black" stroke="black" stroke-width="2" points="266.893,-396.776 263.393,-386.776 259.893,-396.777 266.893,-396.776"/>
<text text-anchor="middle" x="277.893" y="-408.8" font-family="Microsoft YaHei" font-size="14.00">编译</text>
</g>
<!-- 8 -->
<g id="node9" class="node"><title>8</title>
<ellipse fill="none" stroke="black" cx="231.393" cy="-106" rx="41.6928" ry="18"/>
<text text-anchor="middle" x="231.393" y="-102.3" font-family="Times New Roman,serif" font-size="14.00">dispay.c</text>
</g>
<!-- 12 -->
<g id="node13" class="node"><title>12</title>
<polygon fill="none" stroke="black" points="191.893,-0.5 191.893,-36.5 270.893,-36.5 270.893,-0.5 191.893,-0.5"/>
<text text-anchor="middle" x="231.393" y="-14.8" font-family="Times New Roman,serif" font-size="14.00">display.exe</text>
</g>
<!-- 8&#45;&gt;12 -->
<g id="edge19" class="edge"><title>8&#45;&gt;12</title>
<path fill="none" stroke="black" stroke-width="2" d="M231.393,-87.6978C231.393,-75.993 231.393,-60.2864 231.393,-46.897"/>
<polygon fill="black" stroke="black" stroke-width="2" points="234.893,-46.7764 231.393,-36.7765 227.893,-46.7765 234.893,-46.7764"/>
<text text-anchor="middle" x="245.893" y="-58.8" font-family="Microsoft YaHei" font-size="14.00">编译</text>
</g>
<!-- 9&#45;&gt;8 -->
<g id="edge11" class="edge"><title>9&#45;&gt;8</title>
<path fill="none" stroke="black" stroke-dasharray="5,2" d="M118.588,-175.403C141.819,-161.316 174.776,-141.332 199.072,-126.599"/>
<polygon fill="black" stroke="black" points="201.185,-129.411 207.921,-121.233 197.555,-123.426 201.185,-129.411"/>
<text text-anchor="middle" x="195.893" y="-145.8" font-family="Microsoft YaHei" font-size="14.00">被运行</text>
</g>
<!-- 10&#45;&gt;8 -->
<g id="edge12" class="edge"><title>10&#45;&gt;8</title>
<path fill="none" stroke="black" stroke-dasharray="5,2" d="M231.393,-175.198C231.393,-163.493 231.393,-147.786 231.393,-134.397"/>
<polygon fill="black" stroke="black" points="234.893,-134.276 231.393,-124.276 227.893,-134.277 234.893,-134.276"/>
<text text-anchor="middle" x="252.893" y="-145.8" font-family="Microsoft YaHei" font-size="14.00">被运行</text>
</g>
<!-- 11&#45;&gt;4 -->
<g id="edge14" class="edge"><title>11&#45;&gt;4</title>
<path fill="none" stroke="black" stroke-dasharray="5,2" d="M231.043,-350.476C220.531,-344.774 208.877,-338.269 198.393,-332 187.919,-325.737 186.343,-322.388 175.393,-317 161.313,-310.072 145.512,-303.874 130.701,-298.69"/>
<polygon fill="black" stroke="black" points="131.733,-295.344 121.138,-295.432 129.475,-301.97 131.733,-295.344"/>
<text text-anchor="middle" x="219.893" y="-320.8" font-family="Microsoft YaHei" font-size="14.00">被运行</text>
</g>
<!-- 11&#45;&gt;5 -->
<g id="edge15" class="edge"><title>11&#45;&gt;5</title>
<path fill="none" stroke="black" stroke-dasharray="5,2" d="M256.918,-350.198C252.464,-338.299 246.463,-322.266 241.399,-308.734"/>
<polygon fill="black" stroke="black" points="244.533,-307.123 237.75,-298.985 237.978,-309.577 244.533,-307.123"/>
<text text-anchor="middle" x="270.893" y="-320.8" font-family="Microsoft YaHei" font-size="14.00">被运行</text>
</g>
<!-- 11&#45;&gt;8 -->
<g id="edge13" class="edge"><title>11&#45;&gt;8</title>
<path fill="none" stroke="black" stroke-dasharray="5,2" d="M283.091,-350.255C288.141,-344.885 293.077,-338.621 296.393,-332 327.647,-269.607 313.078,-242.236 294.393,-175 290.029,-159.295 288.782,-154.56 278.393,-142 273.949,-136.628 268.517,-131.623 262.943,-127.175"/>
<polygon fill="black" stroke="black" points="264.882,-124.255 254.775,-121.078 260.695,-129.864 264.882,-124.255"/>
<text text-anchor="middle" x="334.893" y="-233.8" font-family="Microsoft YaHei" font-size="14.00">被运行</text>
</g>
</g>
</svg>
