<?xml version="1.0" encoding="utf-8" standalone="no"?>
<!DOCTYPE svg PUBLIC "-//W3C//DTD SVG 1.1//EN"
  "http://www.w3.org/Graphics/SVG/1.1/DTD/svg11.dtd">
<!-- Created with matplotlib (https://matplotlib.org/) -->
<svg height="276.045pt" version="1.1" viewBox="0 0 500.3 276.045" width="500.3pt" xmlns="http://www.w3.org/2000/svg" xmlns:xlink="http://www.w3.org/1999/xlink">
 <defs>
  <style type="text/css">
*{stroke-linecap:butt;stroke-linejoin:round;}
  </style>
 </defs>
 <g id="figure_1">
  <g id="patch_1">
   <path d="M 0 276.045 
L 500.3 276.045 
L 500.3 0 
L 0 0 
z
" style="fill:none;"/>
  </g>
  <g id="axes_1">
   <g id="patch_2">
    <path d="M 43.2 240.42 
L 489.6 240.42 
L 489.6 22.98 
L 43.2 22.98 
z
" style="fill:#ffffff;"/>
   </g>
   <g id="PathCollection_1">
    <defs>
     <path d="M 0 3 
C 0.795609 3 1.55874 2.683901 2.12132 2.12132 
C 2.683901 1.55874 3 0.795609 3 0 
C 3 -0.795609 2.683901 -1.55874 2.12132 -2.12132 
C 1.55874 -2.683901 0.795609 -3 0 -3 
C -0.795609 -3 -1.55874 -2.683901 -2.12132 -2.12132 
C -2.683901 -1.55874 -3 -0.795609 -3 0 
C -3 0.795609 -2.683901 1.55874 -2.12132 2.12132 
C -1.55874 2.683901 -0.795609 3 0 3 
z
" id="m05741a50a4" style="stroke:#000000;"/>
    </defs>
    <g clip-path="url(#p2bcbba98ec)">
     <use style="stroke:#000000;" x="67.701355" xlink:href="#m05741a50a4" y="226.453857"/>
     <use style="stroke:#000000;" x="79.623273" xlink:href="#m05741a50a4" y="221.270968"/>
     <use style="stroke:#000000;" x="115.38903" xlink:href="#m05741a50a4" y="206.120982"/>
     <use style="stroke:#000000;" x="167.050677" xlink:href="#m05741a50a4" y="181.801268"/>
     <use style="stroke:#000000;" x="230.634244" xlink:href="#m05741a50a4" y="151.634192"/>
     <use style="stroke:#000000;" x="302.165756" xlink:href="#m05741a50a4" y="118.543434"/>
     <use style="stroke:#000000;" x="365.749323" xlink:href="#m05741a50a4" y="87.047411"/>
     <use style="stroke:#000000;" x="417.41097" xlink:href="#m05741a50a4" y="62.063224"/>
     <use style="stroke:#000000;" x="453.176727" xlink:href="#m05741a50a4" y="44.255346"/>
     <use style="stroke:#000000;" x="465.098645" xlink:href="#m05741a50a4" y="37.876405"/>
    </g>
   </g>
   <g id="PathCollection_2">
    <defs>
     <path d="M 0 4.242641 
L 4.242641 0 
L 0 -4.242641 
L -4.242641 0 
z
" id="m13ca9655d0" style="stroke:#000000;"/>
    </defs>
    <g clip-path="url(#p2bcbba98ec)">
     <use style="stroke:#000000;" x="67.701355" xlink:href="#m13ca9655d0" y="226.453857"/>
     <use style="stroke:#000000;" x="79.623273" xlink:href="#m13ca9655d0" y="220.4736"/>
     <use style="stroke:#000000;" x="115.38903" xlink:href="#m13ca9655d0" y="203.46309"/>
     <use style="stroke:#000000;" x="167.050677" xlink:href="#m13ca9655d0" y="178.478903"/>
     <use style="stroke:#000000;" x="230.634244" xlink:href="#m13ca9655d0" y="148.046037"/>
     <use style="stroke:#000000;" x="302.165756" xlink:href="#m13ca9655d0" y="116.550014"/>
     <use style="stroke:#000000;" x="365.749323" xlink:href="#m13ca9655d0" y="84.788202"/>
     <use style="stroke:#000000;" x="417.41097" xlink:href="#m13ca9655d0" y="59.006648"/>
     <use style="stroke:#000000;" x="453.176727" xlink:href="#m13ca9655d0" y="42.9264"/>
     <use style="stroke:#000000;" x="465.098645" xlink:href="#m13ca9655d0" y="36.946143"/>
    </g>
   </g>
   <g id="matplotlib.axis_1">
    <g id="xtick_1">
     <g id="line2d_1">
      <path clip-path="url(#p2bcbba98ec)" d="M 67.701355 240.42 
L 67.701355 22.98 
" style="fill:none;stroke:#b0b0b0;stroke-linecap:square;stroke-width:0.8;"/>
     </g>
     <g id="line2d_2">
      <defs>
       <path d="M 0 0 
L 0 3.5 
" id="mcd9a725501" style="stroke:#000000;stroke-width:0.8;"/>
      </defs>
      <g>
       <use style="stroke:#000000;stroke-width:0.8;" x="67.701355" xlink:href="#mcd9a725501" y="240.42"/>
      </g>
     </g>
     <g id="text_1">
      <!-- 0.0 -->
      <defs>
       <path d="M 3.125 29.296875 
Q 3.90625 50 6.4375 56.046875 
Q 8.984375 62.109375 13.671875 66.015625 
Q 18.359375 69.921875 25.1875 69.921875 
Q 32.03125 69.921875 37.109375 64.25 
Q 42.1875 58.59375 43.75 50 
Q 45.3125 41.40625 44.71875 30.265625 
Q 44.140625 19.140625 40.8125 12.109375 
Q 37.5 5.078125 30.859375 2.34375 
Q 24.21875 -0.390625 17.578125 2.921875 
Q 10.9375 6.25 8.203125 11.71875 
Q 5.46875 17.1875 4.296875 23.234375 
Q 3.125 29.296875 3.90625 50 
z
M 12.890625 52.734375 
Q 10.546875 31.25 12.5 22.84375 
Q 14.453125 14.453125 18.9375 10.9375 
Q 23.4375 7.421875 28.125 9.5625 
Q 32.8125 11.71875 34.953125 18.15625 
Q 37.109375 24.609375 37.109375 32.21875 
Q 37.109375 39.84375 36.515625 46.09375 
Q 35.9375 52.34375 33 57.421875 
Q 30.078125 62.5 25.1875 62.6875 
Q 20.3125 62.890625 16.59375 57.8125 
Q 12.890625 52.734375 10.546875 31.25 
z
" id="SimHei-48"/>
       <path d="M 16.796875 1.953125 
L 7.8125 1.953125 
L 7.8125 10.546875 
L 16.796875 10.546875 
z
" id="SimHei-46"/>
      </defs>
      <g transform="translate(60.201355 254.295)scale(0.1 -0.1)">
       <use xlink:href="#SimHei-48"/>
       <use x="50" xlink:href="#SimHei-46"/>
       <use x="100" xlink:href="#SimHei-48"/>
      </g>
     </g>
    </g>
    <g id="xtick_2">
     <g id="line2d_3">
      <path clip-path="url(#p2bcbba98ec)" d="M 147.180813 240.42 
L 147.180813 22.98 
" style="fill:none;stroke:#b0b0b0;stroke-linecap:square;stroke-width:0.8;"/>
     </g>
     <g id="line2d_4">
      <g>
       <use style="stroke:#000000;stroke-width:0.8;" x="147.180813" xlink:href="#mcd9a725501" y="240.42"/>
      </g>
     </g>
     <g id="text_2">
      <!-- 0.2 -->
      <defs>
       <path d="M 4.6875 3.90625 
Q 5.078125 9.765625 10.15625 14.453125 
Q 15.234375 19.140625 23.046875 29.09375 
Q 30.859375 39.0625 33.203125 44.53125 
Q 35.546875 50 34.953125 53.90625 
Q 34.375 57.8125 31.25 60.34375 
Q 28.125 62.890625 24.015625 62.5 
Q 19.921875 62.109375 16.203125 59.375 
Q 12.5 56.640625 10.546875 51.171875 
L 3.125 52.34375 
Q 6.25 61.328125 11.125 65.421875 
Q 16.015625 69.53125 22.65625 69.921875 
Q 26.5625 70.3125 29.6875 69.71875 
Q 32.8125 69.140625 36.125 66.984375 
Q 39.453125 64.84375 41.59375 60.546875 
Q 43.75 56.25 43.15625 50.1875 
Q 42.578125 44.140625 37.109375 35.734375 
Q 31.640625 27.34375 16.015625 9.375 
L 44.140625 9.375 
L 44.140625 2.34375 
L 4.6875 2.34375 
z
" id="SimHei-50"/>
      </defs>
      <g transform="translate(139.680813 254.295)scale(0.1 -0.1)">
       <use xlink:href="#SimHei-48"/>
       <use x="50" xlink:href="#SimHei-46"/>
       <use x="100" xlink:href="#SimHei-50"/>
      </g>
     </g>
    </g>
    <g id="xtick_3">
     <g id="line2d_5">
      <path clip-path="url(#p2bcbba98ec)" d="M 226.660271 240.42 
L 226.660271 22.98 
" style="fill:none;stroke:#b0b0b0;stroke-linecap:square;stroke-width:0.8;"/>
     </g>
     <g id="line2d_6">
      <g>
       <use style="stroke:#000000;stroke-width:0.8;" x="226.660271" xlink:href="#mcd9a725501" y="240.42"/>
      </g>
     </g>
     <g id="text_3">
      <!-- 0.4 -->
      <defs>
       <path d="M 31.25 17.1875 
L 1.171875 17.1875 
L 1.171875 23.828125 
L 32.8125 69.53125 
L 38.671875 69.53125 
L 38.671875 23.828125 
L 48.046875 23.828125 
L 48.046875 17.1875 
L 38.671875 17.1875 
L 38.671875 2.34375 
L 31.25 2.34375 
z
M 31.25 23.828125 
L 31.25 54.6875 
L 9.375 23.828125 
z
" id="SimHei-52"/>
      </defs>
      <g transform="translate(219.160271 254.295)scale(0.1 -0.1)">
       <use xlink:href="#SimHei-48"/>
       <use x="50" xlink:href="#SimHei-46"/>
       <use x="100" xlink:href="#SimHei-52"/>
      </g>
     </g>
    </g>
    <g id="xtick_4">
     <g id="line2d_7">
      <path clip-path="url(#p2bcbba98ec)" d="M 306.139729 240.42 
L 306.139729 22.98 
" style="fill:none;stroke:#b0b0b0;stroke-linecap:square;stroke-width:0.8;"/>
     </g>
     <g id="line2d_8">
      <g>
       <use style="stroke:#000000;stroke-width:0.8;" x="306.139729" xlink:href="#mcd9a725501" y="240.42"/>
      </g>
     </g>
     <g id="text_4">
      <!-- 0.6 -->
      <defs>
       <path d="M 3.515625 19.53125 
Q 4.296875 30.859375 6.046875 34.765625 
Q 7.8125 38.671875 11.328125 44.53125 
L 27.34375 69.53125 
L 36.328125 69.53125 
L 19.921875 43.75 
Q 30.46875 46.484375 36.71875 42.96875 
Q 42.96875 39.453125 45.109375 34.953125 
Q 47.265625 30.46875 47.453125 25.1875 
Q 47.65625 19.921875 45.890625 14.84375 
Q 44.140625 9.765625 39.640625 5.65625 
Q 35.15625 1.5625 27.140625 1.171875 
Q 19.140625 0.78125 13.46875 4.09375 
Q 7.8125 7.421875 5.65625 13.46875 
Q 3.515625 19.53125 4.296875 30.859375 
z
M 12.5 16.015625 
Q 19.53125 8.59375 25.390625 8.203125 
Q 31.25 7.8125 35.15625 12.109375 
Q 39.0625 16.40625 39.0625 24.609375 
Q 39.0625 32.8125 34.171875 35.9375 
Q 29.296875 39.0625 23.234375 38.28125 
Q 17.1875 37.5 14.453125 32.421875 
Q 11.71875 27.34375 12.109375 21.671875 
Q 12.5 16.015625 19.53125 8.59375 
z
" id="SimHei-54"/>
      </defs>
      <g transform="translate(298.639729 254.295)scale(0.1 -0.1)">
       <use xlink:href="#SimHei-48"/>
       <use x="50" xlink:href="#SimHei-46"/>
       <use x="100" xlink:href="#SimHei-54"/>
      </g>
     </g>
    </g>
    <g id="xtick_5">
     <g id="line2d_9">
      <path clip-path="url(#p2bcbba98ec)" d="M 385.619187 240.42 
L 385.619187 22.98 
" style="fill:none;stroke:#b0b0b0;stroke-linecap:square;stroke-width:0.8;"/>
     </g>
     <g id="line2d_10">
      <g>
       <use style="stroke:#000000;stroke-width:0.8;" x="385.619187" xlink:href="#mcd9a725501" y="240.42"/>
      </g>
     </g>
     <g id="text_5">
      <!-- 0.8 -->
      <defs>
       <path d="M 2.734375 16.796875 
Q 2.734375 26.171875 5.078125 30.65625 
Q 7.421875 35.15625 12.890625 37.890625 
Q 8.203125 40.625 6.640625 43.9375 
Q 5.078125 47.265625 4.875 51.5625 
Q 4.6875 55.859375 6.046875 58.984375 
Q 7.421875 62.109375 10.15625 64.84375 
Q 12.890625 67.578125 16.203125 68.546875 
Q 19.53125 69.53125 23.4375 69.53125 
Q 27.34375 69.53125 30.46875 68.75 
Q 33.59375 67.96875 37.109375 65.421875 
Q 40.625 62.890625 42.1875 58.203125 
Q 43.75 53.515625 41.984375 47.265625 
Q 40.234375 41.015625 32.8125 37.5 
Q 39.453125 35.546875 42.1875 31.4375 
Q 44.921875 27.34375 44.921875 21.484375 
Q 44.921875 15.625 43.15625 12.109375 
Q 41.40625 8.59375 39.25 6.25 
Q 37.109375 3.90625 33.390625 2.53125 
Q 29.6875 1.171875 24.015625 1.171875 
Q 18.359375 1.171875 14.25 2.53125 
Q 10.15625 3.90625 7.421875 6.640625 
Q 4.6875 9.375 3.703125 13.078125 
Q 2.734375 16.796875 2.734375 26.171875 
z
M 10.9375 26.5625 
Q 10.546875 17.1875 12.296875 13.671875 
Q 14.0625 10.15625 18.75 9.171875 
Q 23.4375 8.203125 28.515625 9.375 
Q 33.59375 10.546875 35.546875 14.84375 
Q 37.5 19.140625 36.90625 23.4375 
Q 36.328125 27.734375 32.03125 30.65625 
Q 27.734375 33.59375 22.65625 33.203125 
Q 17.578125 32.8125 14.25 29.6875 
Q 10.9375 26.5625 10.546875 17.1875 
z
M 12.109375 56.25 
Q 12.109375 48.4375 14.84375 44.921875 
Q 17.578125 41.40625 23.4375 41.40625 
Q 29.296875 41.40625 32.21875 44.921875 
Q 35.15625 48.4375 34.953125 53.3125 
Q 34.765625 58.203125 31.4375 60.546875 
Q 28.125 62.890625 22.453125 62.5 
Q 16.796875 62.109375 14.453125 59.171875 
Q 12.109375 56.25 12.109375 48.4375 
z
" id="SimHei-56"/>
      </defs>
      <g transform="translate(378.119187 254.295)scale(0.1 -0.1)">
       <use xlink:href="#SimHei-48"/>
       <use x="50" xlink:href="#SimHei-46"/>
       <use x="100" xlink:href="#SimHei-56"/>
      </g>
     </g>
    </g>
    <g id="xtick_6">
     <g id="line2d_11">
      <path clip-path="url(#p2bcbba98ec)" d="M 465.098645 240.42 
L 465.098645 22.98 
" style="fill:none;stroke:#b0b0b0;stroke-linecap:square;stroke-width:0.8;"/>
     </g>
     <g id="line2d_12">
      <g>
       <use style="stroke:#000000;stroke-width:0.8;" x="465.098645" xlink:href="#mcd9a725501" y="240.42"/>
      </g>
     </g>
     <g id="text_6">
      <!-- 1.0 -->
      <defs>
       <path d="M 21.875 56.25 
Q 16.796875 51.171875 8.984375 46.484375 
L 8.984375 53.90625 
Q 18.75 60.546875 25 69.53125 
L 29.6875 69.53125 
L 29.6875 2.34375 
L 21.875 2.34375 
z
" id="SimHei-49"/>
      </defs>
      <g transform="translate(457.598645 254.295)scale(0.1 -0.1)">
       <use xlink:href="#SimHei-49"/>
       <use x="50" xlink:href="#SimHei-46"/>
       <use x="100" xlink:href="#SimHei-48"/>
      </g>
     </g>
    </g>
    <g id="text_7">
     <!-- $cos^2 \theta $ -->
     <defs>
      <path d="M 53.609375 52.59375 
L 51.8125 43.703125 
Q 48.578125 46.046875 44.9375 47.21875 
Q 41.3125 48.390625 37.40625 48.390625 
Q 33.109375 48.390625 29.21875 46.875 
Q 25.34375 45.359375 22.703125 42.578125 
Q 18.5 38.328125 16.203125 32.609375 
Q 13.921875 26.90625 13.921875 20.796875 
Q 13.921875 13.421875 17.609375 9.8125 
Q 21.296875 6.203125 28.8125 6.203125 
Q 32.515625 6.203125 36.6875 7.328125 
Q 40.875 8.453125 45.40625 10.6875 
L 43.703125 1.8125 
Q 39.796875 0.203125 35.671875 -0.609375 
Q 31.546875 -1.421875 27.203125 -1.421875 
Q 16.3125 -1.421875 10.453125 4.015625 
Q 4.59375 9.46875 4.59375 19.578125 
Q 4.59375 28.078125 7.640625 35.234375 
Q 10.6875 42.390625 16.703125 48.09375 
Q 20.796875 52 26.3125 54 
Q 31.84375 56 38.375 56 
Q 42.1875 56 45.9375 55.140625 
Q 49.703125 54.296875 53.609375 52.59375 
z
" id="DejaVuSans-Oblique-99"/>
      <path d="M 25.390625 -1.421875 
Q 15.765625 -1.421875 10.171875 4.515625 
Q 4.59375 10.453125 4.59375 20.703125 
Q 4.59375 26.65625 6.515625 32.828125 
Q 8.453125 39.015625 11.53125 43.21875 
Q 16.359375 49.75 22.3125 52.875 
Q 28.265625 56 35.796875 56 
Q 45.125 56 50.859375 50.1875 
Q 56.59375 44.390625 56.59375 35.015625 
Q 56.59375 28.515625 54.6875 22.0625 
Q 52.78125 15.625 49.703125 11.375 
Q 44.921875 4.828125 38.96875 1.703125 
Q 33.015625 -1.421875 25.390625 -1.421875 
z
M 13.921875 21 
Q 13.921875 13.578125 17.015625 9.890625 
Q 20.125 6.203125 26.421875 6.203125 
Q 35.453125 6.203125 41.375 14.078125 
Q 47.3125 21.96875 47.3125 34.078125 
Q 47.3125 41.15625 44.140625 44.765625 
Q 40.96875 48.390625 34.8125 48.390625 
Q 29.734375 48.390625 25.78125 46.015625 
Q 21.828125 43.65625 18.703125 38.8125 
Q 16.40625 35.203125 15.15625 30.5625 
Q 13.921875 25.921875 13.921875 21 
z
" id="DejaVuSans-Oblique-111"/>
      <path d="M 50 53.078125 
L 48.296875 44.578125 
Q 44.734375 46.53125 40.765625 47.5 
Q 36.8125 48.484375 32.625 48.484375 
Q 25.53125 48.484375 21.453125 46.0625 
Q 17.390625 43.65625 17.390625 39.5 
Q 17.390625 34.671875 26.859375 32.078125 
Q 27.59375 31.890625 27.9375 31.78125 
L 30.8125 30.90625 
Q 39.796875 28.421875 42.796875 25.6875 
Q 45.796875 22.953125 45.796875 18.21875 
Q 45.796875 9.515625 38.890625 4.046875 
Q 31.984375 -1.421875 20.796875 -1.421875 
Q 16.453125 -1.421875 11.671875 -0.578125 
Q 6.890625 0.25 1.125 2 
L 2.875 11.28125 
Q 7.8125 8.734375 12.59375 7.421875 
Q 17.390625 6.109375 21.78125 6.109375 
Q 28.375 6.109375 32.5 8.9375 
Q 36.625 11.765625 36.625 16.109375 
Q 36.625 20.796875 25.78125 23.6875 
L 24.859375 23.921875 
L 21.78125 24.703125 
Q 14.9375 26.515625 11.765625 29.46875 
Q 8.59375 32.421875 8.59375 37.015625 
Q 8.59375 45.75 15.15625 50.875 
Q 21.734375 56 33.015625 56 
Q 37.453125 56 41.671875 55.265625 
Q 45.90625 54.546875 50 53.078125 
z
" id="DejaVuSans-Oblique-115"/>
      <path d="M 19.1875 8.296875 
L 53.609375 8.296875 
L 53.609375 0 
L 7.328125 0 
L 7.328125 8.296875 
Q 12.9375 14.109375 22.625 23.890625 
Q 32.328125 33.6875 34.8125 36.53125 
Q 39.546875 41.84375 41.421875 45.53125 
Q 43.3125 49.21875 43.3125 52.78125 
Q 43.3125 58.59375 39.234375 62.25 
Q 35.15625 65.921875 28.609375 65.921875 
Q 23.96875 65.921875 18.8125 64.3125 
Q 13.671875 62.703125 7.8125 59.421875 
L 7.8125 69.390625 
Q 13.765625 71.78125 18.9375 73 
Q 24.125 74.21875 28.421875 74.21875 
Q 39.75 74.21875 46.484375 68.546875 
Q 53.21875 62.890625 53.21875 53.421875 
Q 53.21875 48.921875 51.53125 44.890625 
Q 49.859375 40.875 45.40625 35.40625 
Q 44.1875 33.984375 37.640625 27.21875 
Q 31.109375 20.453125 19.1875 8.296875 
z
" id="DejaVuSans-50"/>
      <path d="M 45.515625 34.671875 
L 14.453125 34.671875 
Q 12.359375 20.0625 14.5 13.875 
Q 17.1875 6.25 24.46875 6.25 
Q 31.78125 6.25 37.359375 13.921875 
Q 42.234375 20.65625 45.515625 34.671875 
z
M 47.015625 42.96875 
Q 48.34375 56.84375 46.625 61.71875 
Q 43.953125 69.4375 36.765625 69.4375 
Q 29.296875 69.4375 23.828125 61.8125 
Q 19.53125 55.671875 16.15625 42.96875 
z
M 38.1875 76.765625 
Q 49.90625 76.765625 54.59375 66.40625 
Q 59.28125 56.109375 55.71875 37.84375 
Q 52.203125 19.625 43.453125 9.28125 
Q 34.765625 -1.125 23.046875 -1.125 
Q 11.28125 -1.125 6.640625 9.28125 
Q 2 19.625 5.515625 37.84375 
Q 9.078125 56.109375 17.71875 66.40625 
Q 26.421875 76.765625 38.1875 76.765625 
z
" id="DejaVuSans-Oblique-952"/>
     </defs>
     <g transform="translate(252.3 267.595)scale(0.1 -0.1)">
      <use transform="translate(0 0.765625)" xlink:href="#DejaVuSans-Oblique-99"/>
      <use transform="translate(54.980469 0.765625)" xlink:href="#DejaVuSans-Oblique-111"/>
      <use transform="translate(116.162109 0.765625)" xlink:href="#DejaVuSans-Oblique-115"/>
      <use transform="translate(172.911615 39.046875)scale(0.7)" xlink:href="#DejaVuSans-50"/>
      <use transform="translate(220.182122 0.765625)" xlink:href="#DejaVuSans-Oblique-952"/>
     </g>
    </g>
   </g>
   <g id="matplotlib.axis_2">
    <g id="ytick_1">
     <g id="line2d_13">
      <path clip-path="url(#p2bcbba98ec)" d="M 43.2 233.364377 
L 489.6 233.364377 
" style="fill:none;stroke:#b0b0b0;stroke-linecap:square;stroke-width:0.8;"/>
     </g>
     <g id="line2d_14">
      <defs>
       <path d="M 0 0 
L -3.5 0 
" id="mb038713375" style="stroke:#000000;stroke-width:0.8;"/>
      </defs>
      <g>
       <use style="stroke:#000000;stroke-width:0.8;" x="43.2" xlink:href="#mb038713375" y="233.364377"/>
      </g>
     </g>
     <g id="text_8">
      <!-- 0 -->
      <g transform="translate(31.2 236.801877)scale(0.1 -0.1)">
       <use xlink:href="#SimHei-48"/>
      </g>
     </g>
    </g>
    <g id="ytick_2">
     <g id="line2d_15">
      <path clip-path="url(#p2bcbba98ec)" d="M 43.2 206.785455 
L 489.6 206.785455 
" style="fill:none;stroke:#b0b0b0;stroke-linecap:square;stroke-width:0.8;"/>
     </g>
     <g id="line2d_16">
      <g>
       <use style="stroke:#000000;stroke-width:0.8;" x="43.2" xlink:href="#mb038713375" y="206.785455"/>
      </g>
     </g>
     <g id="text_9">
      <!-- 20 -->
      <g transform="translate(26.2 210.222955)scale(0.1 -0.1)">
       <use xlink:href="#SimHei-50"/>
       <use x="50" xlink:href="#SimHei-48"/>
      </g>
     </g>
    </g>
    <g id="ytick_3">
     <g id="line2d_17">
      <path clip-path="url(#p2bcbba98ec)" d="M 43.2 180.206533 
L 489.6 180.206533 
" style="fill:none;stroke:#b0b0b0;stroke-linecap:square;stroke-width:0.8;"/>
     </g>
     <g id="line2d_18">
      <g>
       <use style="stroke:#000000;stroke-width:0.8;" x="43.2" xlink:href="#mb038713375" y="180.206533"/>
      </g>
     </g>
     <g id="text_10">
      <!-- 40 -->
      <g transform="translate(26.2 183.644033)scale(0.1 -0.1)">
       <use xlink:href="#SimHei-52"/>
       <use x="50" xlink:href="#SimHei-48"/>
      </g>
     </g>
    </g>
    <g id="ytick_4">
     <g id="line2d_19">
      <path clip-path="url(#p2bcbba98ec)" d="M 43.2 153.627611 
L 489.6 153.627611 
" style="fill:none;stroke:#b0b0b0;stroke-linecap:square;stroke-width:0.8;"/>
     </g>
     <g id="line2d_20">
      <g>
       <use style="stroke:#000000;stroke-width:0.8;" x="43.2" xlink:href="#mb038713375" y="153.627611"/>
      </g>
     </g>
     <g id="text_11">
      <!-- 60 -->
      <g transform="translate(26.2 157.065111)scale(0.1 -0.1)">
       <use xlink:href="#SimHei-54"/>
       <use x="50" xlink:href="#SimHei-48"/>
      </g>
     </g>
    </g>
    <g id="ytick_5">
     <g id="line2d_21">
      <path clip-path="url(#p2bcbba98ec)" d="M 43.2 127.048689 
L 489.6 127.048689 
" style="fill:none;stroke:#b0b0b0;stroke-linecap:square;stroke-width:0.8;"/>
     </g>
     <g id="line2d_22">
      <g>
       <use style="stroke:#000000;stroke-width:0.8;" x="43.2" xlink:href="#mb038713375" y="127.048689"/>
      </g>
     </g>
     <g id="text_12">
      <!-- 80 -->
      <g transform="translate(26.2 130.486189)scale(0.1 -0.1)">
       <use xlink:href="#SimHei-56"/>
       <use x="50" xlink:href="#SimHei-48"/>
      </g>
     </g>
    </g>
    <g id="ytick_6">
     <g id="line2d_23">
      <path clip-path="url(#p2bcbba98ec)" d="M 43.2 100.469766 
L 489.6 100.469766 
" style="fill:none;stroke:#b0b0b0;stroke-linecap:square;stroke-width:0.8;"/>
     </g>
     <g id="line2d_24">
      <g>
       <use style="stroke:#000000;stroke-width:0.8;" x="43.2" xlink:href="#mb038713375" y="100.469766"/>
      </g>
     </g>
     <g id="text_13">
      <!-- 100 -->
      <g transform="translate(21.2 103.907266)scale(0.1 -0.1)">
       <use xlink:href="#SimHei-49"/>
       <use x="50" xlink:href="#SimHei-48"/>
       <use x="100" xlink:href="#SimHei-48"/>
      </g>
     </g>
    </g>
    <g id="ytick_7">
     <g id="line2d_25">
      <path clip-path="url(#p2bcbba98ec)" d="M 43.2 73.890844 
L 489.6 73.890844 
" style="fill:none;stroke:#b0b0b0;stroke-linecap:square;stroke-width:0.8;"/>
     </g>
     <g id="line2d_26">
      <g>
       <use style="stroke:#000000;stroke-width:0.8;" x="43.2" xlink:href="#mb038713375" y="73.890844"/>
      </g>
     </g>
     <g id="text_14">
      <!-- 120 -->
      <g transform="translate(21.2 77.328344)scale(0.1 -0.1)">
       <use xlink:href="#SimHei-49"/>
       <use x="50" xlink:href="#SimHei-50"/>
       <use x="100" xlink:href="#SimHei-48"/>
      </g>
     </g>
    </g>
    <g id="ytick_8">
     <g id="line2d_27">
      <path clip-path="url(#p2bcbba98ec)" d="M 43.2 47.311922 
L 489.6 47.311922 
" style="fill:none;stroke:#b0b0b0;stroke-linecap:square;stroke-width:0.8;"/>
     </g>
     <g id="line2d_28">
      <g>
       <use style="stroke:#000000;stroke-width:0.8;" x="43.2" xlink:href="#mb038713375" y="47.311922"/>
      </g>
     </g>
     <g id="text_15">
      <!-- 140 -->
      <g transform="translate(21.2 50.749422)scale(0.1 -0.1)">
       <use xlink:href="#SimHei-49"/>
       <use x="50" xlink:href="#SimHei-52"/>
       <use x="100" xlink:href="#SimHei-48"/>
      </g>
     </g>
    </g>
    <g id="text_16">
     <!-- 光强/$10^{-7}A$ -->
     <defs>
      <path d="M 94.53125 35.9375 
Q 90.234375 36.328125 80.46875 36.328125 
L 63.28125 36.328125 
L 63.28125 6.25 
Q 63.28125 0.78125 69.140625 0.78125 
L 77.734375 0.78125 
Q 82.8125 0.78125 83.984375 3.3125 
Q 85.15625 5.859375 85.9375 13.28125 
Q 89.84375 9.765625 95.3125 8.203125 
Q 93.75 2.734375 91.203125 -1.5625 
Q 88.671875 -5.859375 83.203125 -5.859375 
L 64.0625 -5.859375 
Q 55.46875 -5.859375 55.46875 2.734375 
L 55.46875 36.328125 
L 43.359375 36.328125 
Q 44.140625 1.953125 8.984375 -8.984375 
Q 6.25 -4.296875 3.515625 -0.78125 
Q 19.140625 2.34375 27.140625 10.734375 
Q 35.15625 19.140625 35.546875 36.328125 
L 22.65625 36.328125 
Q 9.765625 36.328125 5.859375 35.9375 
L 5.859375 43.359375 
Q 9.765625 42.96875 22.265625 42.96875 
L 46.09375 42.96875 
L 46.09375 67.1875 
Q 46.09375 74.21875 45.703125 80.46875 
L 55.078125 80.46875 
Q 54.296875 76.5625 54.296875 67.1875 
L 54.296875 42.96875 
L 80.46875 42.96875 
Q 89.453125 42.96875 94.53125 43.359375 
z
M 64.0625 51.953125 
Q 73.4375 63.28125 76.171875 71.484375 
Q 81.25 68.359375 85.546875 66.796875 
Q 82.8125 64.0625 79.296875 58.78125 
Q 75.78125 53.515625 71.484375 47.65625 
Q 67.1875 50 64.0625 51.953125 
z
M 27.734375 46.875 
Q 25 52.734375 16.015625 64.84375 
Q 19.921875 67.1875 24.21875 69.53125 
Q 28.125 64.0625 30.65625 60.15625 
Q 33.203125 56.25 35.9375 51.5625 
Q 31.640625 49.609375 27.734375 46.875 
z
" id="SimHei-20809"/>
      <path d="M 36.71875 0.390625 
Q 48.4375 1.171875 61.71875 3.515625 
L 61.71875 18.75 
L 48.4375 18.75 
L 48.4375 15.234375 
L 41.015625 15.234375 
Q 41.40625 26.953125 41.40625 32.03125 
L 41.40625 44.921875 
L 61.71875 44.921875 
L 61.71875 54.6875 
L 44.53125 54.6875 
Q 44.921875 60.9375 44.921875 66.796875 
Q 44.921875 73.046875 44.53125 78.515625 
L 86.328125 78.515625 
Q 85.9375 73.046875 85.9375 66.796875 
Q 85.9375 60.9375 86.328125 54.6875 
L 68.75 54.6875 
L 68.75 44.921875 
L 89.84375 44.921875 
Q 89.453125 40.234375 89.453125 32.421875 
Q 89.453125 24.609375 89.84375 18.75 
L 68.75 18.75 
L 68.75 4.296875 
L 82.03125 6.640625 
Q 80.46875 8.984375 78.90625 11.71875 
Q 82.8125 12.890625 85.546875 14.453125 
Q 92.578125 3.125 96.484375 -3.90625 
Q 92.578125 -5.46875 89.453125 -7.8125 
Q 87.890625 -3.90625 84.765625 1.5625 
Q 80.078125 0.78125 66.015625 -2.140625 
Q 51.953125 -5.078125 40.625 -8.203125 
Q 39.453125 -3.125 36.71875 0.390625 
z
M 9.375 -0.390625 
Q 19.53125 -0.390625 21.875 0.78125 
Q 24.21875 1.953125 24.609375 5.078125 
L 26.171875 28.90625 
L 7.8125 28.90625 
Q 8.59375 36.71875 8.78125 43.15625 
Q 8.984375 49.609375 8.984375 55.859375 
L 28.125 55.859375 
L 28.125 71.09375 
L 19.921875 71.09375 
Q 12.890625 71.09375 6.640625 70.703125 
L 6.640625 77.34375 
Q 13.28125 76.953125 19.921875 76.953125 
L 35.546875 76.953125 
Q 35.15625 70.703125 35.15625 63.671875 
Q 35.15625 57.03125 35.546875 50 
L 16.796875 50 
L 16.015625 34.765625 
L 33.984375 34.765625 
Q 33.203125 27.734375 32.8125 22.265625 
L 31.640625 2.34375 
Q 30.859375 -3.90625 25.578125 -6.046875 
Q 20.3125 -8.203125 13.28125 -9.375 
Q 12.109375 -4.296875 9.375 -0.390625 
z
M 78.90625 60.546875 
L 78.90625 72.65625 
L 51.953125 72.65625 
L 51.953125 60.546875 
z
M 61.71875 24.609375 
L 61.71875 39.0625 
L 48.4375 39.0625 
L 48.4375 24.609375 
z
M 82.03125 24.609375 
L 82.03125 39.0625 
L 68.75 39.0625 
L 68.75 24.609375 
z
" id="SimHei-24378"/>
      <path d="M 46.875 71.09375 
L 5.46875 -2.734375 
L 1.5625 -0.390625 
L 42.96875 73.4375 
z
" id="SimHei-47"/>
      <path d="M 12.40625 8.296875 
L 28.515625 8.296875 
L 28.515625 63.921875 
L 10.984375 60.40625 
L 10.984375 69.390625 
L 28.421875 72.90625 
L 38.28125 72.90625 
L 38.28125 8.296875 
L 54.390625 8.296875 
L 54.390625 0 
L 12.40625 0 
z
" id="DejaVuSans-49"/>
      <path d="M 31.78125 66.40625 
Q 24.171875 66.40625 20.328125 58.90625 
Q 16.5 51.421875 16.5 36.375 
Q 16.5 21.390625 20.328125 13.890625 
Q 24.171875 6.390625 31.78125 6.390625 
Q 39.453125 6.390625 43.28125 13.890625 
Q 47.125 21.390625 47.125 36.375 
Q 47.125 51.421875 43.28125 58.90625 
Q 39.453125 66.40625 31.78125 66.40625 
z
M 31.78125 74.21875 
Q 44.046875 74.21875 50.515625 64.515625 
Q 56.984375 54.828125 56.984375 36.375 
Q 56.984375 17.96875 50.515625 8.265625 
Q 44.046875 -1.421875 31.78125 -1.421875 
Q 19.53125 -1.421875 13.0625 8.265625 
Q 6.59375 17.96875 6.59375 36.375 
Q 6.59375 54.828125 13.0625 64.515625 
Q 19.53125 74.21875 31.78125 74.21875 
z
" id="DejaVuSans-48"/>
      <path d="M 10.59375 35.5 
L 73.1875 35.5 
L 73.1875 27.203125 
L 10.59375 27.203125 
z
" id="DejaVuSans-8722"/>
      <path d="M 8.203125 72.90625 
L 55.078125 72.90625 
L 55.078125 68.703125 
L 28.609375 0 
L 18.3125 0 
L 43.21875 64.59375 
L 8.203125 64.59375 
z
" id="DejaVuSans-55"/>
      <path d="M 36.8125 72.90625 
L 48 72.90625 
L 61.53125 0 
L 51.21875 0 
L 48.1875 18.703125 
L 15.375 18.703125 
L 5.078125 0 
L -5.328125 0 
z
M 40.375 63.1875 
L 19.921875 26.90625 
L 46.6875 26.90625 
z
" id="DejaVuSans-Oblique-65"/>
     </defs>
     <g transform="translate(15.95 159.35)rotate(-90)scale(0.1 -0.1)">
      <use transform="translate(0 0.684375)" xlink:href="#SimHei-20809"/>
      <use transform="translate(100 0.684375)" xlink:href="#SimHei-24378"/>
      <use transform="translate(200 0.684375)" xlink:href="#SimHei-47"/>
      <use transform="translate(250 0.684375)" xlink:href="#DejaVuSans-49"/>
      <use transform="translate(313.623047 0.684375)" xlink:href="#DejaVuSans-48"/>
      <use transform="translate(378.203125 38.965625)scale(0.7)" xlink:href="#DejaVuSans-8722"/>
      <use transform="translate(436.855469 38.965625)scale(0.7)" xlink:href="#DejaVuSans-55"/>
      <use transform="translate(484.125977 0.684375)" xlink:href="#DejaVuSans-Oblique-65"/>
     </g>
    </g>
   </g>
   <g id="line2d_29">
    <path clip-path="url(#p2bcbba98ec)" d="M 67.701355 228.069826 
L 79.623273 222.408039 
L 115.38903 205.422678 
L 167.050677 180.888267 
L 230.634244 150.69207 
L 302.165756 116.721347 
L 365.749323 86.52515 
L 417.41097 61.990739 
L 453.176727 45.005378 
L 465.098645 39.343591 
" style="fill:none;stroke:#000000;stroke-linecap:square;stroke-width:1.5;"/>
   </g>
   <g id="line2d_30">
    <path clip-path="url(#p2bcbba98ec)" d="M 67.701355 226.243034 
L 79.623273 220.571249 
L 115.38903 203.555895 
L 167.050677 178.978162 
L 230.634244 148.728643 
L 302.165756 114.697935 
L 365.749323 84.448417 
L 417.41097 59.870684 
L 453.176727 42.85533 
L 465.098645 37.183545 
" style="fill:none;stroke:#000000;stroke-dasharray:5.55,2.4;stroke-dashoffset:0;stroke-width:1.5;"/>
   </g>
   <g id="patch_3">
    <path d="M 43.2 240.42 
L 43.2 22.98 
" style="fill:none;stroke:#000000;stroke-linecap:square;stroke-linejoin:miter;stroke-width:0.8;"/>
   </g>
   <g id="patch_4">
    <path d="M 489.6 240.42 
L 489.6 22.98 
" style="fill:none;stroke:#000000;stroke-linecap:square;stroke-linejoin:miter;stroke-width:0.8;"/>
   </g>
   <g id="patch_5">
    <path d="M 43.2 240.42 
L 489.6 240.42 
" style="fill:none;stroke:#000000;stroke-linecap:square;stroke-linejoin:miter;stroke-width:0.8;"/>
   </g>
   <g id="patch_6">
    <path d="M 43.2 22.98 
L 489.6 22.98 
" style="fill:none;stroke:#000000;stroke-linecap:square;stroke-linejoin:miter;stroke-width:0.8;"/>
   </g>
   <g id="text_17">
    <!-- 通过两偏振器的光强I与两透光轴间夹角$\theta$的关系测量数据 -->
    <defs>
     <path d="M 88.671875 78.90625 
Q 83.203125 72.65625 77.140625 67.1875 
Q 71.09375 61.71875 66.40625 57.03125 
L 89.0625 57.03125 
Q 88.671875 48.4375 88.671875 40.234375 
L 88.671875 13.28125 
Q 89.0625 8.203125 85.9375 6.640625 
Q 82.8125 5.078125 76.5625 3.90625 
Q 75.78125 7.421875 72.65625 12.109375 
Q 78.515625 12.5 80.46875 13.28125 
Q 82.421875 14.0625 82.03125 20.703125 
L 64.453125 20.703125 
L 64.453125 4.6875 
L 57.421875 4.6875 
L 57.421875 20.703125 
L 40.234375 20.703125 
L 40.234375 4.6875 
L 33.203125 4.6875 
Q 33.59375 17.578125 33.59375 30.46875 
Q 33.59375 43.359375 33.203125 57.03125 
L 56.25 57.03125 
Q 54.296875 60.15625 47.65625 65.625 
Q 50.390625 67.96875 52.734375 70.703125 
Q 59.765625 65.234375 62.5 62.5 
Q 68.75 69.140625 72.265625 72.65625 
L 47.265625 72.65625 
Q 39.453125 72.65625 33.59375 72.265625 
L 33.59375 79.296875 
Q 39.453125 78.90625 46.484375 78.90625 
z
M 22.265625 46.875 
Q 21.875 39.0625 21.875 32.8125 
L 21.875 9.375 
Q 31.640625 -0.390625 57.8125 -0.390625 
Q 83.984375 -0.390625 96.09375 1.953125 
Q 93.75 -2.734375 93.359375 -7.8125 
Q 62.109375 -8.203125 49.015625 -7.03125 
Q 35.9375 -5.859375 27.734375 -1.75 
Q 19.53125 2.34375 16.796875 -0.578125 
Q 14.0625 -3.515625 10.15625 -10.15625 
Q 6.640625 -6.25 3.125 -3.515625 
Q 9.375 1.953125 15.234375 6.640625 
L 15.234375 40.234375 
Q 12.109375 40.234375 5.46875 39.84375 
L 5.46875 47.265625 
Q 11.71875 46.875 22.265625 46.875 
z
M 82.03125 26.953125 
L 82.03125 36.328125 
L 64.453125 36.328125 
L 64.453125 26.953125 
z
M 57.421875 26.953125 
L 57.421875 36.328125 
L 40.234375 36.328125 
L 40.234375 26.953125 
z
M 82.03125 42.578125 
L 82.03125 51.171875 
L 64.453125 51.171875 
L 64.453125 42.578125 
z
M 57.421875 42.578125 
L 57.421875 51.171875 
L 40.234375 51.171875 
L 40.234375 42.578125 
z
M 16.015625 78.515625 
Q 22.65625 69.140625 26.5625 63.671875 
Q 22.265625 61.328125 19.53125 58.203125 
Q 16.796875 64.0625 9.375 73.828125 
Q 12.5 76.171875 16.015625 78.515625 
z
" id="SimHei-36890"/>
     <path d="M 3.90625 -3.125 
Q 16.015625 7.421875 19.921875 10.15625 
L 19.921875 38.671875 
Q 10.546875 38.671875 6.25 38.28125 
L 6.25 46.09375 
Q 9.765625 45.3125 20.703125 45.3125 
L 28.125 45.3125 
Q 27.734375 39.453125 27.734375 33.59375 
L 27.734375 9.375 
Q 39.0625 -0.390625 61.125 -0.578125 
Q 83.203125 -0.78125 96.09375 1.171875 
Q 93.75 -2.734375 92.578125 -8.59375 
L 69.140625 -8.59375 
Q 59.375 -8.59375 51.171875 -8 
Q 42.96875 -7.421875 37.296875 -4.6875 
Q 31.640625 -1.953125 27.34375 1.171875 
Q 23.046875 4.296875 19.328125 0.578125 
Q 15.625 -3.125 10.9375 -9.765625 
Q 8.59375 -5.859375 3.90625 -3.125 
z
M 56.640625 13.28125 
Q 65.625 12.890625 67.96875 13.671875 
Q 70.3125 14.453125 70.3125 20.3125 
L 70.3125 55.859375 
L 44.921875 55.859375 
Q 40.625 55.859375 35.546875 55.46875 
L 35.546875 62.890625 
Q 40.625 62.5 48.046875 62.5 
L 70.3125 62.5 
Q 70.3125 72.65625 69.53125 80.078125 
L 78.515625 80.078125 
Q 78.125 75 78.125 62.5 
Q 86.328125 62.5 92.96875 62.890625 
L 92.96875 55.46875 
Q 86.71875 55.859375 78.125 55.859375 
L 78.125 17.1875 
Q 78.125 8.203125 72.84375 6.4375 
Q 67.578125 4.6875 59.765625 4.296875 
Q 58.984375 8.59375 56.640625 13.28125 
z
M 48.828125 25 
Q 45.3125 35.546875 40.234375 44.53125 
Q 43.75 46.09375 47.65625 48.828125 
Q 54.6875 34.765625 56.640625 29.296875 
Q 53.90625 27.734375 48.828125 25 
z
M 17.96875 77.734375 
Q 21.875 73.046875 30.078125 60.546875 
Q 26.171875 58.203125 22.65625 55.46875 
Q 14.84375 68.75 10.9375 72.265625 
Q 14.453125 74.21875 17.96875 77.734375 
z
" id="SimHei-36807"/>
     <path d="M 26.5625 12.890625 
Q 24.609375 15.234375 20.703125 18.359375 
Q 31.640625 28.90625 35.15625 48.046875 
L 18.359375 48.046875 
L 18.359375 -7.8125 
L 10.546875 -7.8125 
Q 10.9375 2.734375 10.9375 10.546875 
L 10.9375 41.40625 
Q 10.9375 46.484375 10.546875 54.6875 
L 35.9375 54.6875 
Q 36.328125 61.328125 36.71875 69.921875 
L 17.578125 69.921875 
Q 12.890625 69.921875 8.203125 69.53125 
L 8.203125 76.5625 
Q 12.890625 76.171875 17.1875 76.171875 
L 82.03125 76.171875 
Q 85.9375 76.171875 93.359375 76.5625 
L 93.359375 69.53125 
Q 87.890625 69.921875 82.421875 69.921875 
L 67.1875 69.921875 
Q 67.1875 64.0625 66.40625 54.6875 
L 89.84375 54.6875 
Q 89.453125 47.65625 89.453125 42.578125 
L 89.453125 3.90625 
Q 89.453125 -2.734375 85.34375 -4.6875 
Q 81.25 -6.640625 69.921875 -7.8125 
Q 68.75 -2.34375 66.015625 1.171875 
Q 77.734375 0.78125 79.875 1.953125 
Q 82.03125 3.125 82.03125 7.8125 
L 82.03125 48.046875 
L 65.625 48.046875 
Q 64.84375 41.40625 63.28125 35.546875 
Q 74.21875 26.953125 80.078125 21.875 
Q 76.5625 18.75 74.21875 15.625 
Q 70.3125 20.703125 61.71875 28.125 
Q 56.640625 15.625 50.78125 7.421875 
Q 46.875 10.15625 43.359375 11.328125 
Q 48.046875 16.40625 52.34375 25.578125 
Q 56.640625 34.765625 58.203125 48.046875 
L 42.578125 48.046875 
Q 41.40625 42.1875 40.234375 37.890625 
Q 48.046875 31.25 51.171875 27.34375 
Q 48.4375 25 45.3125 21.875 
Q 41.015625 28.125 37.890625 31.25 
Q 33.59375 21.09375 26.5625 12.890625 
z
M 58.984375 54.6875 
Q 59.375 64.0625 59.375 69.921875 
L 44.140625 69.921875 
Q 44.140625 64.0625 43.359375 54.6875 
z
" id="SimHei-20004"/>
     <path d="M 25.78125 8.203125 
Q 35.546875 24.21875 37.5 40.625 
Q 39.453125 57.03125 38.28125 72.265625 
L 61.328125 72.265625 
Q 60.546875 76.5625 58.203125 81.25 
Q 62.109375 82.03125 65.234375 82.8125 
Q 66.796875 79.296875 69.140625 72.265625 
L 88.671875 72.265625 
Q 88.28125 67.1875 88.28125 60.9375 
Q 88.28125 54.6875 88.671875 50 
L 45.3125 50 
Q 44.921875 45.703125 44.53125 41.015625 
L 93.359375 41.015625 
Q 92.96875 34.375 92.96875 27.34375 
L 92.96875 -1.5625 
Q 92.96875 -6.25 90.03125 -7.609375 
Q 87.109375 -8.984375 81.25 -10.15625 
Q 80.46875 -6.25 77.734375 -1.953125 
Q 86.328125 -2.34375 86.328125 1.5625 
L 86.328125 16.796875 
L 76.953125 16.796875 
Q 76.953125 6.640625 77.34375 0 
L 69.921875 0 
Q 70.703125 6.25 70.703125 16.796875 
L 62.5 16.796875 
Q 62.5 5.46875 62.890625 -0.390625 
L 55.46875 -0.390625 
Q 55.859375 5.46875 55.859375 16.796875 
L 47.265625 16.796875 
L 47.265625 -9.375 
L 40.234375 -9.375 
L 40.234375 24.609375 
Q 37.890625 16.40625 31.25 4.296875 
Q 27.734375 7.421875 25.78125 8.203125 
z
M 3.515625 38.28125 
Q 12.890625 49.21875 18.75 60.9375 
Q 24.609375 72.65625 25.78125 79.296875 
Q 29.296875 76.953125 35.15625 75.390625 
Q 32.421875 73.828125 24.609375 54.296875 
L 24.609375 8.59375 
Q 24.609375 -0.78125 25 -8.984375 
L 17.1875 -8.984375 
Q 17.578125 -1.171875 17.578125 8.59375 
L 17.578125 45.3125 
Q 14.453125 40.234375 9.765625 33.59375 
Q 7.421875 36.71875 3.515625 38.28125 
z
M 81.640625 55.859375 
L 81.640625 66.40625 
L 45.3125 66.40625 
L 45.3125 55.859375 
z
M 86.328125 22.265625 
L 86.328125 35.15625 
L 76.953125 35.15625 
L 76.953125 22.265625 
z
M 55.859375 22.265625 
L 55.859375 35.15625 
L 47.265625 35.15625 
L 47.265625 22.265625 
z
M 70.703125 22.265625 
L 70.703125 35.15625 
L 62.5 35.15625 
L 62.5 22.265625 
z
" id="SimHei-20559"/>
     <path d="M 51.171875 -3.125 
Q 53.125 -1.5625 53.703125 0.578125 
Q 54.296875 2.734375 54.296875 7.8125 
L 54.296875 35.9375 
L 47.265625 35.9375 
Q 46.875 28.125 46.09375 21.484375 
Q 45.3125 14.84375 43.75 9.375 
Q 42.1875 3.90625 40.234375 -0.578125 
Q 38.28125 -5.078125 36.328125 -9.765625 
Q 33.984375 -7.421875 28.515625 -5.46875 
Q 33.59375 -0.390625 35.9375 6.4375 
Q 38.28125 13.28125 39.0625 21.09375 
Q 39.84375 28.90625 40.03125 38.078125 
Q 40.234375 47.265625 40.234375 56.640625 
Q 40.234375 66.40625 39.453125 75.390625 
L 80.46875 75.390625 
Q 85.546875 75.390625 91.015625 75.78125 
L 91.015625 68.359375 
Q 84.375 68.75 81.640625 68.75 
L 47.265625 68.75 
L 47.265625 42.1875 
L 83.984375 42.1875 
Q 87.5 42.1875 93.359375 42.578125 
L 93.359375 35.546875 
Q 91.40625 35.9375 85.546875 35.9375 
L 73.046875 35.9375 
Q 74.609375 25 76.953125 19.921875 
Q 80.078125 22.65625 82.21875 24.796875 
Q 84.375 26.953125 86.71875 30.859375 
Q 88.28125 27.734375 92.1875 24.609375 
Q 89.84375 23.4375 87.109375 20.890625 
Q 84.375 18.359375 80.078125 13.671875 
Q 81.640625 10.15625 85.9375 5.65625 
Q 90.234375 1.171875 96.484375 -1.171875 
Q 91.796875 -3.90625 90.234375 -8.203125 
Q 82.8125 -2.734375 79.296875 1.5625 
Q 75.78125 5.859375 73.234375 10.734375 
Q 70.703125 15.625 68.9375 21.671875 
Q 67.1875 27.734375 66.40625 35.9375 
L 61.71875 35.9375 
L 61.71875 2.34375 
Q 66.40625 4.6875 71.484375 7.421875 
Q 72.265625 5.078125 74.21875 0.78125 
Q 71.484375 -0.390625 66.203125 -3.3125 
Q 60.9375 -6.25 56.25 -10.15625 
Q 54.6875 -7.03125 51.171875 -3.125 
z
M 3.90625 31.25 
Q 8.59375 32.421875 11.328125 33.203125 
L 17.96875 35.546875 
L 17.96875 52.34375 
Q 10.546875 52.34375 5.078125 51.953125 
L 5.078125 59.375 
Q 10.15625 58.984375 17.96875 58.984375 
L 17.96875 70.3125 
Q 17.96875 75.78125 17.578125 80.46875 
L 26.171875 80.46875 
Q 25.78125 76.171875 25.78125 70.3125 
L 25.78125 58.984375 
Q 29.296875 58.984375 35.9375 59.375 
L 35.9375 51.953125 
Q 29.6875 52.34375 25.78125 52.34375 
L 25.78125 37.890625 
Q 31.25 39.84375 35.15625 41.796875 
Q 35.15625 38.671875 35.546875 35.15625 
Q 32.8125 34.375 25.78125 31.25 
L 25.78125 1.5625 
Q 25 -3.90625 22.65625 -5.65625 
Q 20.3125 -7.421875 11.328125 -8.203125 
Q 10.9375 -5.078125 9.375 0.390625 
Q 13.28125 0 15.625 0 
Q 17.96875 0 17.96875 4.6875 
L 17.96875 28.125 
Q 15.234375 26.953125 13.28125 25.96875 
Q 11.328125 25 7.421875 22.65625 
Q 6.640625 26.171875 3.90625 31.25 
z
M 77.34375 58.984375 
Q 82.421875 58.984375 87.5 59.375 
L 87.5 51.953125 
Q 82.421875 52.34375 78.125 52.34375 
L 62.5 52.34375 
Q 58.203125 52.34375 52.734375 51.953125 
L 52.734375 59.375 
Q 57.8125 58.984375 62.5 58.984375 
z
" id="SimHei-25391"/>
     <path d="M 4.296875 30.078125 
Q 12.109375 30.078125 18.9375 31.25 
Q 25.78125 32.421875 31.046875 34.375 
Q 36.328125 36.328125 41.015625 41.015625 
L 23.828125 41.015625 
Q 19.53125 41.015625 8.59375 40.625 
L 8.59375 47.265625 
Q 19.53125 46.875 23.828125 46.875 
L 42.96875 46.875 
Q 44.140625 50.390625 43.75 55.46875 
Q 48.828125 54.6875 54.296875 53.90625 
Q 51.953125 51.5625 51.5625 46.875 
L 69.140625 46.875 
Q 66.40625 49.609375 63.671875 51.5625 
L 69.140625 55.46875 
Q 72.265625 53.125 75 50 
Q 72.65625 48.828125 70.3125 46.875 
L 76.171875 46.875 
Q 84.765625 46.875 91.796875 47.265625 
L 91.796875 40.625 
Q 85.15625 41.015625 76.171875 41.015625 
L 56.640625 41.015625 
Q 64.0625 34.765625 75.578125 33 
Q 87.109375 31.25 95.3125 32.03125 
Q 92.1875 28.125 91.40625 23.4375 
Q 81.640625 24.21875 74.796875 25.578125 
Q 67.96875 26.953125 62.296875 29.6875 
Q 56.640625 32.421875 49.21875 40.234375 
Q 42.1875 31.25 30.859375 27.53125 
Q 19.53125 23.828125 8.203125 22.265625 
Q 7.03125 26.953125 4.296875 30.078125 
z
M 78.515625 -8.984375 
L 78.515625 -1.5625 
L 59.765625 -1.5625 
L 59.765625 -8.59375 
L 53.125 -8.59375 
Q 53.515625 0 53.515625 7.421875 
Q 53.515625 15.234375 53.125 22.265625 
L 85.546875 22.265625 
Q 85.15625 17.578125 85.15625 6.25 
Q 85.15625 -4.6875 85.546875 -8.984375 
z
M 37.5 -8.59375 
L 37.5 -1.5625 
L 20.703125 -1.5625 
L 20.703125 -8.984375 
L 13.671875 -8.984375 
Q 14.0625 -2.34375 14.0625 7.421875 
Q 14.0625 17.1875 13.671875 22.265625 
L 44.140625 22.265625 
Q 43.75 16.015625 43.75 6.640625 
Q 43.75 -2.34375 44.140625 -8.59375 
z
M 85.546875 78.515625 
Q 85.15625 73.4375 85.15625 67.96875 
Q 85.15625 62.5 85.546875 56.640625 
L 52.734375 56.640625 
Q 53.125 62.5 53.125 67.96875 
Q 53.125 73.828125 52.734375 78.515625 
L 85.546875 78.515625 
z
M 44.140625 78.515625 
Q 43.75 73.4375 43.75 67.578125 
Q 43.75 62.109375 44.140625 56.640625 
L 13.671875 56.640625 
Q 14.0625 62.109375 14.0625 67.578125 
Q 14.0625 73.4375 13.671875 78.515625 
L 44.140625 78.515625 
z
M 78.515625 3.90625 
L 78.515625 16.40625 
L 59.765625 16.40625 
L 59.765625 3.90625 
z
M 37.5 3.90625 
L 37.5 16.40625 
L 20.703125 16.40625 
L 20.703125 3.90625 
z
M 78.515625 62.109375 
L 78.515625 73.046875 
L 59.765625 73.046875 
L 59.765625 62.109375 
z
M 37.5 62.109375 
L 37.5 73.046875 
L 20.703125 73.046875 
L 20.703125 62.109375 
z
" id="SimHei-22120"/>
     <path d="M 32.8125 77.734375 
Q 30.859375 74.21875 27.34375 61.71875 
L 44.921875 61.71875 
Q 44.53125 55.078125 44.53125 44.921875 
L 44.53125 10.546875 
Q 44.53125 4.6875 44.921875 -6.25 
L 37.109375 -6.25 
L 37.109375 1.5625 
L 17.1875 1.5625 
L 17.1875 -7.03125 
L 9.375 -7.03125 
Q 9.765625 5.46875 9.765625 8.59375 
L 9.765625 44.53125 
Q 9.765625 55.078125 9.375 61.71875 
L 20.703125 61.71875 
Q 22.65625 70.703125 23.828125 80.46875 
Q 29.296875 78.515625 32.8125 77.734375 
z
M 91.015625 48.046875 
Q 90.625 24.21875 89.0625 2.734375 
Q 88.28125 -4.296875 81.640625 -6.640625 
Q 75 -8.984375 66.796875 -9.765625 
Q 66.40625 -5.46875 63.28125 -0.78125 
Q 71.09375 -1.171875 75.578125 -0.390625 
Q 80.078125 0.390625 81.25 3.125 
Q 82.421875 5.859375 83 19.140625 
Q 83.59375 32.421875 83.984375 56.25 
L 61.328125 56.25 
Q 58.203125 48.828125 52.34375 38.671875 
Q 49.609375 41.40625 45.703125 42.96875 
Q 49.21875 47.65625 52.34375 54.296875 
Q 55.46875 60.9375 57.8125 68.75 
Q 60.15625 76.5625 60.546875 80.859375 
Q 66.015625 78.515625 69.921875 77.34375 
Q 67.96875 74.21875 66.59375 70.5 
Q 65.234375 66.796875 63.671875 63.28125 
L 91.40625 63.28125 
Q 91.015625 55.078125 91.015625 48.046875 
z
M 37.109375 8.203125 
L 37.109375 28.90625 
L 17.1875 28.90625 
L 17.1875 8.203125 
z
M 37.109375 35.546875 
L 37.109375 55.078125 
L 17.1875 55.078125 
L 17.1875 35.546875 
z
M 67.96875 32.03125 
Q 70.3125 27.34375 73.4375 19.921875 
Q 70.703125 18.75 66.015625 16.015625 
Q 63.28125 23.4375 60.9375 28.703125 
Q 58.59375 33.984375 56.25 37.5 
Q 58.984375 39.0625 63.28125 41.40625 
z
" id="SimHei-30340"/>
     <path d="M 28.90625 1.953125 
L 19.921875 1.953125 
L 19.921875 68.75 
L 28.90625 68.75 
z
" id="SimHei-73"/>
     <path d="M 83.59375 1.5625 
Q 82.421875 -4.6875 76.953125 -6.640625 
Q 71.484375 -8.59375 60.9375 -9.375 
Q 60.546875 -5.859375 57.03125 -0.390625 
Q 68.359375 -0.78125 71.484375 0 
Q 74.609375 0.78125 75.578125 3.515625 
Q 76.5625 6.25 79.6875 36.71875 
L 17.578125 36.71875 
Q 22.65625 67.96875 23.046875 81.25 
Q 28.125 80.46875 32.421875 80.078125 
Q 30.859375 75.390625 29.6875 66.796875 
L 76.5625 66.796875 
Q 84.375 66.796875 90.625 67.1875 
L 90.625 59.765625 
Q 84.375 60.15625 77.34375 60.15625 
L 28.90625 60.15625 
L 26.5625 42.96875 
L 88.671875 42.96875 
Q 87.890625 38.28125 87.109375 32.03125 
z
M 57.421875 21.09375 
Q 64.453125 21.09375 70.3125 21.484375 
L 70.3125 13.671875 
Q 64.453125 14.0625 60.15625 14.0625 
L 22.65625 14.0625 
Q 15.625 14.0625 7.8125 13.671875 
L 7.8125 21.484375 
Q 15.625 21.09375 22.65625 21.09375 
z
" id="SimHei-19982"/>
     <path d="M 85.15625 72.265625 
Q 82.03125 72.265625 76.359375 71.875 
Q 70.703125 71.484375 62.890625 70.3125 
L 62.890625 62.109375 
Q 83.59375 62.109375 89.84375 62.5 
L 89.84375 55.859375 
Q 83.59375 56.25 69.53125 56.25 
Q 72.265625 51.953125 78.90625 48.625 
Q 85.546875 45.3125 93.359375 44.53125 
Q 90.234375 41.015625 89.84375 37.5 
Q 79.6875 39.453125 72.265625 44.921875 
Q 64.84375 50.390625 62.890625 55.859375 
L 62.890625 37.890625 
L 77.34375 37.890625 
L 74.21875 27.34375 
L 88.28125 27.34375 
Q 87.109375 18.75 84.953125 13.46875 
Q 82.8125 8.203125 78.703125 6.4375 
Q 74.609375 4.6875 67.96875 3.90625 
Q 67.96875 7.8125 65.234375 11.71875 
Q 74.609375 10.9375 76.75 13.671875 
Q 78.90625 16.40625 79.6875 21.875 
L 66.015625 21.875 
L 68.75 32.03125 
L 56.640625 32.03125 
Q 55.078125 21.484375 50 14.25 
Q 44.921875 7.03125 38.671875 3.515625 
Q 36.328125 6.25 32.8125 8.203125 
Q 40.234375 11.71875 44.328125 18.15625 
Q 48.4375 24.609375 49.21875 32.03125 
Q 42.96875 32.03125 37.890625 31.640625 
L 37.890625 37.890625 
L 33.984375 35.9375 
Q 32.8125 39.453125 28.90625 41.796875 
Q 35.546875 43.75 40.8125 47.453125 
Q 46.09375 51.171875 49.609375 56.25 
Q 37.5 56.25 30.46875 55.859375 
L 30.46875 62.5 
Q 37.5 62.109375 56.25 62.109375 
L 56.25 69.921875 
Q 42.1875 68.75 37.109375 68.359375 
Q 36.328125 72.265625 35.15625 75 
Q 47.65625 75 59.5625 76.171875 
Q 71.484375 77.34375 81.640625 79.6875 
Q 83.59375 76.171875 85.15625 72.265625 
z
M 23.046875 48.828125 
Q 22.65625 41.40625 22.65625 34.765625 
L 22.65625 9.765625 
Q 34.765625 0 59.765625 0 
Q 85.15625 0 96.09375 2.34375 
Q 93.75 -2.734375 92.96875 -6.640625 
Q 69.140625 -7.421875 58.984375 -6.828125 
Q 48.828125 -6.25 40.421875 -4.296875 
Q 32.03125 -2.34375 26.359375 0.78125 
Q 20.703125 3.90625 17.578125 0.96875 
Q 14.453125 -1.953125 9.375 -7.421875 
Q 7.03125 -4.6875 3.515625 -1.953125 
Q 11.71875 5.46875 15.625 7.8125 
L 15.625 42.578125 
Q 10.15625 42.578125 4.6875 42.1875 
L 4.6875 49.21875 
Q 10.15625 48.828125 14.84375 48.828125 
z
M 14.453125 79.296875 
Q 19.53125 73.046875 25 64.0625 
Q 21.484375 62.5 18.359375 59.375 
Q 16.015625 65.234375 7.8125 75 
Q 11.328125 76.5625 14.453125 79.296875 
z
M 37.890625 38.28125 
Q 44.53125 37.890625 56.25 37.890625 
L 56.25 54.6875 
Q 53.125 49.609375 48.4375 45.703125 
Q 43.75 41.796875 37.890625 38.28125 
z
" id="SimHei-36879"/>
     <path d="M 65.625 60.9375 
Q 65.625 74.609375 65.234375 80.859375 
L 73.4375 80.859375 
Q 73.046875 75 73.046875 60.9375 
L 92.96875 60.9375 
Q 92.578125 47.265625 92.578125 26.171875 
Q 92.578125 5.078125 92.96875 -8.203125 
L 85.15625 -8.203125 
L 85.15625 1.5625 
L 53.515625 1.5625 
L 53.515625 -8.984375 
L 46.09375 -8.984375 
Q 46.484375 5.078125 46.484375 26.171875 
Q 46.484375 47.265625 46.09375 60.9375 
L 65.625 60.9375 
z
M 42.578125 14.84375 
Q 35.15625 14.0625 32.421875 13.671875 
Q 32.421875 3.125 32.8125 -9.375 
L 24.609375 -9.375 
Q 25 3.125 25 12.5 
Q 10.9375 10.15625 7.03125 8.984375 
Q 6.25 12.5 4.296875 16.796875 
Q 10.9375 17.1875 25 19.53125 
L 25 32.421875 
L 17.1875 32.421875 
Q 13.28125 32.421875 8.203125 31.25 
L 4.6875 38.671875 
Q 8.203125 40.625 10.9375 47.265625 
Q 13.671875 53.90625 16.015625 61.328125 
Q 10.9375 61.328125 5.078125 60.9375 
L 5.078125 67.96875 
Q 10.9375 67.578125 17.578125 67.578125 
Q 20.3125 75.390625 21.484375 82.03125 
Q 25.390625 80.46875 30.078125 79.6875 
Q 28.515625 76.953125 25 67.578125 
Q 33.984375 67.578125 42.96875 67.96875 
L 42.96875 60.9375 
Q 34.375 61.328125 23.046875 61.328125 
Q 17.96875 46.875 14.453125 38.671875 
L 25 38.671875 
Q 25 47.65625 24.609375 53.125 
L 32.8125 53.125 
Q 32.421875 48.4375 32.421875 38.671875 
Q 37.890625 38.671875 41.015625 39.0625 
L 41.015625 32.03125 
Q 38.28125 32.421875 32.421875 32.421875 
L 32.421875 20.3125 
L 43.359375 21.875 
Q 42.578125 18.359375 42.578125 14.84375 
z
M 65.625 8.203125 
L 65.625 28.90625 
L 53.515625 28.90625 
L 53.515625 8.203125 
z
M 85.15625 8.203125 
L 85.15625 28.90625 
L 73.046875 28.90625 
L 73.046875 8.203125 
z
M 65.625 35.15625 
L 65.625 54.296875 
L 53.515625 54.296875 
L 53.515625 35.15625 
z
M 85.15625 35.15625 
L 85.15625 54.296875 
L 73.046875 54.296875 
L 73.046875 35.15625 
z
" id="SimHei-36724"/>
     <path d="M 69.53125 55.46875 
Q 69.140625 48.046875 69.140625 42.578125 
L 69.140625 21.875 
Q 69.140625 16.796875 69.53125 9.765625 
L 30.078125 9.765625 
Q 30.46875 16.796875 30.46875 22.265625 
L 30.46875 42.578125 
Q 30.46875 48.046875 30.078125 55.46875 
L 69.53125 55.46875 
z
M 90.625 76.171875 
Q 90.234375 68.75 90.234375 61.328125 
L 90.234375 3.90625 
Q 90.625 -5.078125 85.34375 -7.03125 
Q 80.078125 -8.984375 73.828125 -9.765625 
Q 73.4375 -5.078125 70.703125 -0.390625 
Q 78.125 -0.78125 80.265625 0.390625 
Q 82.421875 1.5625 82.421875 5.46875 
L 82.421875 69.53125 
L 58.984375 69.53125 
Q 49.609375 69.53125 41.40625 69.140625 
L 41.40625 76.5625 
Q 49.609375 76.171875 58.984375 76.171875 
z
M 8.59375 -8.203125 
Q 9.375 -0.390625 9.375 8.203125 
L 9.375 49.21875 
Q 9.375 57.421875 8.59375 62.890625 
L 17.578125 62.890625 
Q 17.1875 57.03125 17.1875 51.5625 
L 17.1875 7.8125 
Q 17.1875 0 17.578125 -8.203125 
z
M 61.71875 16.015625 
L 61.71875 30.46875 
L 37.890625 30.46875 
L 37.890625 16.015625 
z
M 61.71875 36.71875 
L 61.71875 49.21875 
L 37.890625 49.21875 
L 37.890625 36.71875 
z
M 23.828125 82.8125 
Q 27.34375 78.125 34.765625 67.96875 
Q 30.46875 66.015625 26.5625 63.671875 
Q 22.65625 71.484375 16.796875 78.515625 
Q 21.09375 81.640625 23.828125 82.8125 
z
" id="SimHei-38388"/>
     <path d="M 84.765625 53.515625 
Q 80.859375 49.609375 78.703125 45.5 
Q 76.5625 41.40625 71.875 33.59375 
L 79.6875 33.59375 
Q 86.71875 33.59375 92.578125 33.984375 
L 92.578125 26.5625 
Q 86.71875 26.953125 80.078125 26.953125 
L 58.59375 26.953125 
Q 62.109375 21.09375 66.984375 15.421875 
Q 71.875 9.765625 80.078125 4.296875 
Q 88.28125 -1.171875 94.140625 -2.734375 
Q 91.40625 -4.6875 88.28125 -10.15625 
Q 82.421875 -7.421875 74.609375 -1.359375 
Q 66.796875 4.6875 60.734375 12.296875 
Q 54.6875 19.921875 51.953125 26.5625 
Q 50 17.96875 45.703125 12.5 
Q 41.40625 7.03125 35.9375 2.734375 
Q 30.46875 -1.5625 25.390625 -4.296875 
Q 20.3125 -7.03125 11.71875 -10.546875 
Q 10.15625 -6.25 7.421875 -3.125 
Q 14.0625 -1.5625 20.703125 1.75 
Q 27.34375 5.078125 32.8125 9.5625 
Q 38.28125 14.0625 41.015625 18.546875 
Q 43.75 23.046875 44.53125 26.953125 
L 21.09375 26.953125 
Q 13.28125 26.953125 8.59375 26.5625 
L 8.59375 33.984375 
Q 13.28125 33.59375 21.09375 33.59375 
L 45.703125 33.59375 
Q 46.484375 46.09375 46.484375 59.375 
L 26.171875 59.375 
Q 18.359375 59.375 13.28125 58.984375 
L 13.28125 66.015625 
Q 18.359375 65.625 26.171875 65.625 
L 46.484375 65.625 
L 46.484375 69.53125 
Q 46.484375 75.78125 46.09375 80.46875 
L 54.6875 80.46875 
Q 53.515625 74.21875 53.90625 68.359375 
L 53.90625 65.625 
L 72.265625 65.625 
Q 80.46875 65.625 87.5 66.015625 
L 87.5 58.984375 
Q 80.859375 59.375 72.65625 59.375 
L 53.90625 59.375 
Q 53.90625 46.875 53.125 33.59375 
L 71.09375 33.59375 
Q 67.96875 36.328125 64.84375 37.890625 
Q 69.53125 43.75 71.875 48.4375 
Q 74.21875 53.125 76.171875 57.8125 
Q 78.515625 55.859375 84.765625 53.515625 
z
M 25 57.421875 
Q 30.078125 50.78125 36.71875 39.84375 
Q 32.421875 37.890625 28.90625 35.546875 
Q 26.171875 41.015625 24.21875 44.71875 
Q 22.265625 48.4375 18.359375 53.125 
Q 21.09375 54.6875 25 57.421875 
z
" id="SimHei-22841"/>
     <path d="M 48.828125 14.0625 
L 25.390625 14.0625 
Q 23.046875 1.953125 13.671875 -9.765625 
Q 10.15625 -6.25 6.25 -4.6875 
Q 12.109375 0.78125 15.234375 7.421875 
Q 18.359375 14.0625 19.53125 24.609375 
Q 20.703125 35.15625 20.3125 51.953125 
Q 17.1875 48.828125 12.890625 45.703125 
Q 10.9375 48.828125 6.640625 51.953125 
Q 10.15625 53.515625 16.796875 58.390625 
Q 23.4375 63.28125 28.90625 70.5 
Q 34.375 77.734375 36.71875 82.421875 
Q 39.84375 80.078125 44.140625 78.125 
Q 42.1875 76.171875 37.890625 70.703125 
L 75.390625 70.703125 
Q 73.4375 68.359375 63.28125 54.296875 
L 87.5 54.296875 
Q 87.109375 45.703125 87.109375 39.0625 
L 87.109375 0.390625 
Q 87.109375 -5.46875 83.203125 -7.03125 
Q 79.296875 -8.59375 71.484375 -9.375 
Q 70.3125 -5.078125 67.578125 -0.78125 
Q 75.390625 -0.78125 77.734375 0 
Q 80.078125 0.78125 79.6875 5.078125 
L 79.6875 14.0625 
L 56.25 14.0625 
L 56.25 6.25 
Q 56.25 0.390625 56.640625 -7.8125 
L 48.046875 -7.8125 
Q 48.828125 0 48.828125 7.8125 
z
M 55.078125 54.296875 
L 62.109375 64.453125 
L 33.59375 64.453125 
Q 28.515625 58.984375 23.046875 54.296875 
z
M 79.6875 20.3125 
L 79.6875 31.25 
L 56.25 31.25 
L 56.25 20.3125 
z
M 79.6875 37.5 
L 79.6875 47.65625 
L 56.25 47.65625 
L 56.25 37.5 
z
M 48.828125 20.3125 
L 48.828125 31.25 
L 27.34375 31.25 
Q 27.34375 25.390625 26.5625 20.3125 
z
M 48.828125 37.5 
L 48.828125 47.65625 
L 27.734375 47.65625 
L 27.734375 37.5 
z
" id="SimHei-35282"/>
     <path d="M 73.046875 75.78125 
Q 70.703125 73.046875 68.15625 68.359375 
Q 65.625 63.671875 63.671875 59.765625 
L 72.265625 59.765625 
Q 80.46875 59.765625 86.71875 60.15625 
L 86.71875 52.734375 
Q 81.640625 53.125 73.4375 53.125 
L 53.125 53.125 
L 53.125 33.59375 
L 77.734375 33.59375 
Q 85.546875 33.59375 91.796875 33.984375 
L 91.796875 26.5625 
Q 85.546875 26.953125 78.515625 26.953125 
L 54.6875 26.953125 
Q 66.40625 7.03125 93.75 1.171875 
Q 90.234375 -2.734375 87.5 -8.203125 
Q 62.890625 0 50.390625 20.3125 
Q 43.75 3.125 13.671875 -9.375 
Q 12.109375 -5.46875 7.8125 -2.34375 
Q 37.890625 5.859375 44.921875 26.953125 
L 24.21875 26.953125 
Q 15.234375 26.953125 9.375 26.5625 
L 9.375 33.59375 
Q 13.671875 33.203125 22.65625 33.203125 
L 45.703125 33.203125 
L 45.703125 53.125 
L 27.34375 53.125 
Q 19.921875 53.125 14.0625 52.734375 
L 14.0625 60.15625 
Q 19.921875 59.765625 27.734375 59.765625 
L 55.859375 59.765625 
Q 61.328125 72.265625 63.671875 80.46875 
Q 67.578125 78.125 73.046875 75.78125 
z
M 33.203125 80.078125 
Q 38.28125 73.828125 43.75 65.234375 
Q 39.0625 62.890625 36.328125 60.546875 
Q 31.640625 69.53125 26.953125 75.390625 
Q 30.46875 77.734375 33.203125 80.078125 
z
" id="SimHei-20851"/>
     <path d="M 82.8125 81.25 
Q 85.15625 77.34375 89.453125 73.046875 
Q 77.734375 72.65625 69.328125 71.671875 
Q 60.9375 70.703125 48.828125 69.53125 
Q 50.78125 67.578125 54.296875 66.015625 
Q 49.21875 62.890625 44.328125 58.78125 
Q 39.453125 54.6875 34.765625 51.171875 
L 54.296875 51.171875 
Q 64.0625 57.8125 70.703125 63.28125 
Q 74.609375 60.15625 80.078125 57.8125 
Q 74.609375 55.46875 69.53125 52.734375 
Q 64.453125 50 52.921875 42.765625 
Q 41.40625 35.546875 33.203125 30.859375 
Q 56.25 32.03125 76.171875 32.8125 
Q 74.21875 34.765625 66.015625 41.015625 
Q 69.921875 42.578125 72.65625 44.921875 
Q 77.34375 41.40625 83.390625 36.125 
Q 89.453125 30.859375 94.921875 25.78125 
Q 90.234375 23.046875 87.5 20.703125 
Q 84.375 24.609375 81.640625 26.953125 
Q 71.09375 26.5625 56.640625 25.78125 
L 56.640625 2.34375 
Q 56.640625 -5.078125 52.921875 -6.4375 
Q 49.21875 -7.8125 39.453125 -9.375 
Q 38.671875 -4.6875 35.9375 -0.390625 
Q 44.921875 -0.390625 47.0625 0.1875 
Q 49.21875 0.78125 49.21875 4.6875 
L 49.21875 25.78125 
Q 25.390625 25.390625 16.796875 23.828125 
Q 15.625 27.734375 14.0625 32.03125 
Q 22.65625 32.8125 29.296875 35.9375 
Q 35.9375 39.0625 45.3125 45.3125 
Q 36.328125 45.3125 31.828125 44.921875 
Q 27.34375 44.53125 21.875 43.75 
Q 20.703125 48.046875 19.53125 51.953125 
Q 26.171875 51.953125 32.8125 57.21875 
Q 39.453125 62.5 42.96875 68.75 
Q 21.09375 67.96875 14.453125 67.1875 
Q 13.28125 71.09375 11.71875 74.21875 
Q 33.59375 74.21875 50.78125 75.78125 
Q 67.96875 77.34375 82.8125 81.25 
z
M 72.265625 19.53125 
Q 76.953125 16.015625 83.203125 11.515625 
Q 89.453125 7.03125 93.75 2.734375 
Q 90.625 0 87.5 -3.515625 
Q 82.421875 1.953125 76.953125 6.25 
Q 71.484375 10.546875 66.796875 13.671875 
Q 70.3125 16.40625 72.265625 19.53125 
z
M 34.375 13.671875 
Q 29.6875 11.328125 24.015625 5.859375 
Q 18.359375 0.390625 12.5 -4.6875 
Q 8.984375 -1.171875 5.859375 0.390625 
Q 16.796875 7.03125 26.171875 19.140625 
Q 29.6875 16.40625 34.375 13.671875 
z
" id="SimHei-31995"/>
     <path d="M 62.890625 73.828125 
Q 62.5 69.921875 62.5 62.5 
L 62.5 34.765625 
Q 62.5 27.734375 62.890625 21.09375 
L 55.46875 21.09375 
L 55.46875 67.578125 
L 36.71875 67.578125 
L 36.71875 20.703125 
L 29.6875 20.703125 
Q 30.078125 27.734375 30.078125 34.765625 
L 30.078125 62.5 
Q 30.078125 65.625 29.6875 73.828125 
L 62.890625 73.828125 
z
M 92.1875 79.296875 
Q 91.796875 75 91.796875 68.359375 
L 91.796875 0 
Q 91.796875 -5.078125 88.28125 -6.640625 
Q 84.765625 -8.203125 77.734375 -9.375 
Q 76.953125 -5.078125 74.609375 -0.78125 
Q 80.078125 -0.78125 82.21875 -0.390625 
Q 84.375 0 84.375 3.90625 
L 84.375 68.359375 
Q 84.375 74.609375 83.984375 79.296875 
L 92.1875 79.296875 
z
M 51.171875 58.203125 
Q 50.390625 53.125 50 36.328125 
Q 49.609375 19.53125 44.328125 8.59375 
Q 39.0625 -2.34375 32.421875 -9.375 
Q 28.90625 -6.25 25 -5.078125 
Q 34.375 3.90625 38.671875 15.03125 
Q 42.96875 26.171875 43.15625 38.671875 
Q 43.359375 51.171875 42.578125 59.375 
Q 46.875 58.59375 51.171875 58.203125 
z
M 77.34375 66.796875 
Q 76.953125 62.5 76.953125 55.859375 
L 76.953125 28.515625 
Q 76.953125 20.3125 77.34375 13.28125 
L 69.53125 13.28125 
Q 69.921875 17.96875 69.921875 28.515625 
L 69.921875 55.859375 
Q 69.921875 62.5 69.53125 66.796875 
L 77.34375 66.796875 
z
M 26.5625 26.171875 
Q 21.484375 16.796875 17.375 7.609375 
Q 13.28125 -1.5625 11.328125 -6.25 
Q 7.8125 -3.125 3.125 -0.390625 
Q 7.421875 4.6875 11.90625 13.28125 
Q 16.40625 21.875 19.53125 31.25 
Q 23.046875 28.515625 26.5625 26.171875 
z
M 53.125 16.40625 
Q 59.375 10.15625 67.1875 -1.953125 
Q 64.0625 -3.515625 60.546875 -7.03125 
Q 54.296875 4.296875 47.265625 11.71875 
Q 50.390625 13.671875 53.125 16.40625 
z
M 9.375 55.078125 
Q 17.578125 48.828125 23.4375 43.359375 
Q 20.3125 40.234375 17.96875 37.109375 
Q 12.890625 43.359375 4.6875 49.21875 
Q 7.03125 51.5625 9.375 55.078125 
z
M 21.09375 62.5 
Q 14.84375 68.359375 7.421875 73.046875 
Q 9.765625 75.78125 12.109375 78.90625 
Q 20.3125 73.4375 26.171875 68.359375 
Q 23.4375 66.40625 21.09375 62.5 
z
" id="SimHei-27979"/>
     <path d="M 82.03125 39.0625 
Q 81.640625 34.375 81.640625 26.5625 
Q 81.640625 19.140625 82.03125 14.84375 
L 53.515625 14.84375 
L 53.515625 9.765625 
L 71.484375 9.765625 
Q 78.125 9.765625 83.984375 10.15625 
L 83.984375 4.296875 
Q 78.515625 4.6875 71.484375 4.6875 
L 53.515625 4.6875 
L 53.515625 -1.171875 
L 80.078125 -1.171875 
Q 86.328125 -1.171875 92.578125 -0.78125 
L 92.578125 -6.640625 
Q 86.328125 -6.25 80.078125 -6.25 
L 19.921875 -6.25 
Q 14.0625 -6.25 7.421875 -6.640625 
L 7.421875 -0.78125 
Q 14.453125 -0.78125 19.921875 -1.171875 
L 46.484375 -1.171875 
L 46.484375 4.6875 
L 26.953125 4.6875 
Q 21.09375 4.6875 15.234375 3.90625 
L 15.234375 10.15625 
Q 21.484375 9.765625 26.953125 9.765625 
L 46.484375 9.765625 
L 46.484375 14.84375 
L 17.96875 14.84375 
Q 18.359375 21.484375 18.359375 27.734375 
Q 18.359375 33.984375 17.96875 39.0625 
L 82.03125 39.0625 
z
M 81.25 77.34375 
Q 80.859375 71.484375 80.859375 66.40625 
Q 80.859375 61.328125 81.25 53.125 
L 18.75 53.125 
Q 19.140625 61.328125 19.140625 66.40625 
Q 19.140625 71.484375 18.75 77.34375 
L 81.25 77.34375 
z
M 76.5625 48.4375 
Q 85.9375 48.828125 93.75 49.21875 
L 93.75 42.96875 
Q 85.9375 43.359375 76.953125 43.359375 
L 25.78125 43.359375 
Q 15.234375 43.359375 5.078125 42.96875 
L 5.078125 49.21875 
Q 15.234375 48.828125 25.78125 48.4375 
z
M 73.828125 57.8125 
L 73.828125 62.890625 
L 26.171875 62.890625 
L 26.171875 57.8125 
z
M 73.828125 67.96875 
L 73.828125 72.65625 
L 26.171875 72.65625 
L 26.171875 67.96875 
z
M 74.21875 29.296875 
L 74.21875 33.984375 
L 53.515625 33.984375 
L 53.515625 29.296875 
z
M 46.484375 29.296875 
L 46.484375 33.984375 
L 25.78125 33.984375 
L 25.78125 29.296875 
z
M 46.484375 19.921875 
L 46.484375 24.21875 
L 25.78125 24.21875 
L 25.78125 19.921875 
z
M 74.21875 19.921875 
L 74.21875 24.21875 
L 53.515625 24.21875 
L 53.515625 19.921875 
z
" id="SimHei-37327"/>
     <path d="M 70.703125 76.953125 
Q 69.921875 75 68.75 71.671875 
Q 67.578125 68.359375 65.234375 59.765625 
L 83.203125 59.765625 
Q 87.109375 59.765625 92.578125 60.15625 
L 92.578125 53.125 
Q 88.28125 53.515625 85.9375 53.515625 
Q 85.9375 47.265625 83.78125 33.78125 
Q 81.640625 20.3125 76.171875 10.546875 
Q 80.078125 5.859375 84.953125 2.140625 
Q 89.84375 -1.5625 94.140625 -3.125 
Q 89.453125 -6.640625 87.890625 -9.765625 
Q 83.203125 -7.03125 79.296875 -3.515625 
Q 75.390625 0 71.484375 5.078125 
Q 67.1875 0.390625 62.296875 -2.921875 
Q 57.421875 -6.25 50 -10.15625 
Q 48.046875 -6.640625 44.53125 -4.6875 
Q 50.390625 -2.34375 57.03125 1.953125 
Q 63.671875 6.25 67.1875 10.546875 
Q 64.453125 16.015625 61.90625 22.265625 
Q 59.375 28.515625 57.421875 38.671875 
Q 56.25 35.546875 53.515625 30.46875 
Q 50.78125 32.03125 46.875 33.59375 
Q 53.125 44.53125 57.03125 57.421875 
Q 60.9375 70.3125 62.109375 79.6875 
Q 66.796875 77.734375 70.703125 76.953125 
z
M 32.8125 35.15625 
Q 31.25 33.59375 29.296875 30.078125 
L 50.78125 30.078125 
Q 48.4375 20.3125 42.578125 10.546875 
Q 48.828125 8.203125 52.34375 6.25 
Q 50.390625 3.515625 48.828125 0.390625 
Q 45.3125 2.734375 38.28125 5.078125 
Q 30.46875 -3.515625 11.328125 -10.15625 
Q 9.375 -5.859375 6.25 -4.296875 
Q 24.609375 0 31.25 7.421875 
Q 20.3125 10.15625 13.28125 12.109375 
Q 15.625 15.625 19.53125 23.828125 
Q 15.625 23.828125 6.640625 23.4375 
L 6.640625 30.46875 
Q 14.0625 30.078125 21.875 30.078125 
Q 23.4375 33.59375 24.21875 37.890625 
Q 28.515625 36.328125 32.8125 35.15625 
z
M 27.734375 61.71875 
Q 27.734375 71.09375 27.34375 79.6875 
L 35.15625 79.6875 
Q 34.765625 71.484375 34.765625 61.71875 
Q 48.046875 61.71875 53.515625 62.109375 
L 53.515625 55.078125 
Q 48.046875 55.46875 34.765625 55.46875 
Q 34.765625 44.140625 35.15625 37.890625 
L 27.34375 37.890625 
Q 27.734375 43.359375 27.734375 51.5625 
Q 25.78125 48.4375 20.3125 43.546875 
Q 14.84375 38.671875 10.15625 35.9375 
Q 8.203125 39.453125 4.296875 41.015625 
Q 7.8125 42.1875 13.671875 46.484375 
Q 19.53125 50.78125 22.65625 55.46875 
Q 14.84375 55.46875 7.8125 55.078125 
L 7.8125 62.109375 
Q 14.453125 61.71875 27.734375 61.71875 
z
M 62.109375 49.609375 
Q 65.625 26.5625 71.875 17.578125 
Q 75.78125 26.5625 77.140625 35.734375 
Q 78.515625 44.921875 78.90625 53.515625 
L 63.671875 53.515625 
L 62.109375 49.609375 
z
M 22.65625 15.625 
Q 27.34375 14.453125 35.546875 12.5 
Q 38.671875 16.40625 41.40625 23.828125 
L 26.953125 23.828125 
Q 25 19.921875 22.65625 15.625 
z
M 51.953125 75.390625 
Q 50 72.265625 48.828125 69.53125 
Q 47.65625 66.796875 45.703125 62.890625 
Q 42.578125 64.453125 39.453125 65.234375 
Q 42.578125 70.3125 45.3125 78.125 
Q 49.21875 76.171875 51.953125 75.390625 
z
M 40.234375 52.734375 
Q 45.3125 47.65625 50 42.578125 
Q 47.65625 40.625 44.921875 37.890625 
Q 39.453125 44.53125 35.9375 48.4375 
Q 38.28125 50.390625 40.234375 52.734375 
z
M 14.453125 78.125 
Q 19.921875 72.65625 23.4375 67.1875 
L 17.578125 63.671875 
Q 14.84375 69.140625 9.375 73.828125 
Q 12.890625 76.171875 14.453125 78.125 
z
" id="SimHei-25968"/>
     <path d="M 89.84375 74.609375 
Q 89.453125 71.09375 89.453125 66.015625 
L 89.453125 60.9375 
Q 89.453125 53.90625 89.84375 50.78125 
L 48.4375 50.78125 
L 48.4375 39.0625 
L 66.40625 39.0625 
Q 66.40625 42.578125 66.015625 49.609375 
L 73.4375 49.609375 
Q 73.046875 43.359375 73.046875 39.0625 
L 83.59375 39.0625 
Q 90.625 39.0625 95.3125 39.453125 
L 95.3125 32.421875 
Q 90.625 32.8125 83.984375 32.8125 
L 73.046875 32.8125 
L 73.046875 22.265625 
L 90.234375 22.265625 
Q 89.84375 14.84375 89.84375 12.5 
L 89.84375 2.734375 
Q 89.84375 -3.515625 90.234375 -8.984375 
L 83.203125 -8.984375 
L 83.203125 -3.515625 
L 57.421875 -3.515625 
L 57.421875 -9.375 
L 50.390625 -9.375 
Q 50.78125 -5.078125 50.78125 1.5625 
L 50.78125 12.890625 
Q 50.78125 16.796875 50.390625 22.265625 
L 66.40625 22.265625 
L 66.40625 32.8125 
L 48.046875 32.8125 
Q 47.65625 21.484375 45.109375 11.515625 
Q 42.578125 1.5625 37.890625 -7.421875 
Q 34.375 -5.078125 30.46875 -3.90625 
Q 35.15625 2.34375 37.296875 9.375 
Q 39.453125 16.40625 40.625 24.40625 
Q 41.796875 32.421875 41.796875 41.015625 
L 41.796875 55.859375 
Q 41.796875 62.109375 41.40625 74.609375 
L 89.84375 74.609375 
z
M 19.921875 69.140625 
Q 19.921875 74.609375 19.53125 79.296875 
L 27.34375 79.296875 
Q 26.953125 75 26.953125 69.140625 
L 26.953125 58.984375 
Q 30.859375 58.984375 39.0625 59.375 
L 39.0625 52.734375 
Q 30.859375 53.125 26.953125 53.125 
L 26.953125 38.28125 
Q 32.03125 41.015625 37.5 44.53125 
Q 37.890625 41.40625 39.453125 38.671875 
Q 32.03125 34.375 26.953125 31.25 
L 26.953125 2.734375 
Q 26.953125 -4.6875 23.234375 -6.25 
Q 19.53125 -7.8125 12.109375 -8.984375 
Q 11.328125 -5.078125 9.375 -0.78125 
Q 16.015625 -0.78125 17.96875 -0.1875 
Q 19.921875 0.390625 19.921875 5.078125 
L 19.921875 28.125 
Q 14.0625 25 8.203125 20.703125 
Q 7.03125 23.828125 4.296875 28.125 
Q 12.109375 30.859375 19.921875 35.15625 
L 19.921875 53.125 
Q 12.5 53.125 5.46875 52.734375 
L 5.46875 59.375 
Q 12.5 58.984375 19.921875 58.984375 
z
M 82.8125 56.640625 
L 82.8125 68.75 
L 48.4375 68.75 
L 48.4375 56.640625 
z
M 83.203125 2.34375 
L 83.203125 16.796875 
L 57.421875 16.796875 
L 57.421875 2.34375 
z
" id="SimHei-25454"/>
    </defs>
    <g transform="translate(115.68 16.98)scale(0.12 -0.12)">
     <use transform="translate(0 0.1875)" xlink:href="#SimHei-36890"/>
     <use transform="translate(100 0.1875)" xlink:href="#SimHei-36807"/>
     <use transform="translate(200 0.1875)" xlink:href="#SimHei-20004"/>
     <use transform="translate(300 0.1875)" xlink:href="#SimHei-20559"/>
     <use transform="translate(400 0.1875)" xlink:href="#SimHei-25391"/>
     <use transform="translate(500 0.1875)" xlink:href="#SimHei-22120"/>
     <use transform="translate(600 0.1875)" xlink:href="#SimHei-30340"/>
     <use transform="translate(700 0.1875)" xlink:href="#SimHei-20809"/>
     <use transform="translate(800 0.1875)" xlink:href="#SimHei-24378"/>
     <use transform="translate(900 0.1875)" xlink:href="#SimHei-73"/>
     <use transform="translate(950 0.1875)" xlink:href="#SimHei-19982"/>
     <use transform="translate(1050 0.1875)" xlink:href="#SimHei-20004"/>
     <use transform="translate(1150 0.1875)" xlink:href="#SimHei-36879"/>
     <use transform="translate(1250 0.1875)" xlink:href="#SimHei-20809"/>
     <use transform="translate(1350 0.1875)" xlink:href="#SimHei-36724"/>
     <use transform="translate(1450 0.1875)" xlink:href="#SimHei-38388"/>
     <use transform="translate(1550 0.1875)" xlink:href="#SimHei-22841"/>
     <use transform="translate(1650 0.1875)" xlink:href="#SimHei-35282"/>
     <use transform="translate(1750 0.1875)" xlink:href="#DejaVuSans-Oblique-952"/>
     <use transform="translate(1811.181641 0.1875)" xlink:href="#SimHei-30340"/>
     <use transform="translate(1911.181641 0.1875)" xlink:href="#SimHei-20851"/>
     <use transform="translate(2011.181641 0.1875)" xlink:href="#SimHei-31995"/>
     <use transform="translate(2111.181641 0.1875)" xlink:href="#SimHei-27979"/>
     <use transform="translate(2211.181641 0.1875)" xlink:href="#SimHei-37327"/>
     <use transform="translate(2311.181641 0.1875)" xlink:href="#SimHei-25968"/>
     <use transform="translate(2411.181641 0.1875)" xlink:href="#SimHei-25454"/>
    </g>
   </g>
   <g id="legend_1">
    <g id="patch_7">
     <path d="M 50.2 59.651875 
L 112.2 59.651875 
Q 114.2 59.651875 114.2 57.651875 
L 114.2 29.98 
Q 114.2 27.98 112.2 27.98 
L 50.2 27.98 
Q 48.2 27.98 48.2 29.98 
L 48.2 57.651875 
Q 48.2 59.651875 50.2 59.651875 
z
" style="fill:#ffffff;opacity:0.8;stroke:#cccccc;stroke-linejoin:miter;"/>
    </g>
    <g id="line2d_31">
     <path d="M 52.2 36.565937 
L 72.2 36.565937 
" style="fill:none;stroke:#000000;stroke-linecap:square;stroke-width:1.5;"/>
    </g>
    <g id="line2d_32"/>
    <g id="text_18">
     <!-- Ⅱ左旋 -->
     <defs>
      <path d="M 31.25 71.09375 
L 38.28125 71.09375 
L 38.28125 3.515625 
L 31.25 3.515625 
z
M 61.328125 71.09375 
L 68.359375 71.09375 
L 68.359375 3.515625 
L 61.328125 3.515625 
z
" id="SimHei-8545"/>
      <path d="M 49.609375 80.078125 
Q 48.046875 75 46.484375 64.84375 
L 76.953125 64.84375 
Q 84.375 64.84375 91.40625 65.625 
L 91.40625 57.8125 
Q 84.375 58.203125 78.515625 58.203125 
L 44.921875 58.203125 
Q 41.015625 44.921875 37.5 36.71875 
L 72.265625 36.71875 
Q 79.296875 36.71875 85.9375 37.109375 
L 85.9375 29.296875 
Q 79.6875 29.6875 72.65625 29.6875 
L 61.328125 29.6875 
L 61.328125 0.390625 
L 77.34375 0.390625 
Q 86.71875 0.390625 94.140625 0.78125 
L 94.140625 -7.03125 
Q 85.546875 -6.640625 78.125 -6.640625 
L 34.375 -6.640625 
Q 26.171875 -6.640625 20.703125 -7.03125 
L 20.703125 0.78125 
Q 26.171875 0.390625 34.765625 0.390625 
L 53.125 0.390625 
L 53.125 29.6875 
L 33.984375 29.6875 
Q 29.6875 22.265625 24.21875 15.421875 
Q 18.75 8.59375 10.546875 0.78125 
Q 8.59375 3.515625 3.125 5.859375 
Q 10.9375 11.71875 16.59375 18.359375 
Q 22.265625 25 27.734375 34.953125 
Q 33.203125 44.921875 36.71875 58.203125 
L 26.5625 58.203125 
Q 17.1875 58.203125 10.546875 57.8125 
L 10.546875 65.625 
Q 17.578125 64.84375 26.5625 64.84375 
L 38.28125 64.84375 
Q 39.84375 74.609375 39.84375 80.859375 
Q 45.3125 80.078125 49.609375 80.078125 
z
" id="SimHei-24038"/>
      <path d="M 66.015625 78.90625 
Q 62.890625 76.5625 60.15625 68.75 
L 85.15625 68.75 
Q 91.40625 68.75 96.484375 69.140625 
L 96.484375 62.5 
Q 91.796875 62.890625 85.15625 62.890625 
L 57.8125 62.890625 
Q 55.078125 57.421875 52.734375 53.515625 
Q 59.375 53.125 65.234375 53.125 
L 95.703125 53.125 
Q 91.015625 41.40625 89.84375 36.328125 
Q 86.328125 37.5 82.421875 38.28125 
L 85.546875 46.875 
L 73.046875 46.875 
L 73.046875 28.515625 
Q 83.59375 28.515625 91.015625 28.90625 
L 91.015625 21.875 
Q 83.984375 22.265625 73.046875 22.265625 
L 73.046875 1.5625 
Q 82.8125 -0.390625 96.09375 0.390625 
Q 94.140625 -3.125 92.578125 -8.59375 
Q 83.203125 -8.203125 74.609375 -6.4375 
Q 66.015625 -4.6875 60.734375 0.1875 
Q 55.46875 5.078125 52.734375 9.765625 
Q 48.4375 -2.34375 41.796875 -10.546875 
Q 38.28125 -7.8125 33.984375 -6.25 
Q 39.0625 -1.5625 42.1875 3.90625 
Q 45.3125 9.375 46.875 15.421875 
Q 48.4375 21.484375 48.828125 36.71875 
Q 52.734375 35.9375 57.421875 35.546875 
Q 53.515625 21.484375 57.03125 14.640625 
Q 60.546875 7.8125 66.015625 4.296875 
L 66.015625 46.875 
Q 59.375 46.875 52.34375 46.484375 
L 52.34375 52.34375 
Q 49.609375 46.484375 46.875 42.96875 
Q 44.140625 45.703125 40.234375 47.65625 
Q 45.703125 55.46875 49.609375 63.671875 
Q 53.515625 71.875 56.25 82.8125 
Q 60.546875 80.46875 66.015625 78.90625 
z
M 44.140625 57.421875 
Q 35.546875 57.8125 23.828125 57.8125 
L 23.4375 43.359375 
L 39.84375 43.359375 
Q 39.0625 36.328125 39.0625 30.078125 
L 37.890625 8.59375 
Q 36.328125 2.34375 33 0.390625 
Q 29.6875 -1.5625 23.828125 -3.125 
Q 23.046875 1.5625 20.3125 5.859375 
Q 24.609375 5.859375 27.921875 6.4375 
Q 31.25 7.03125 31.640625 19.140625 
L 32.421875 37.5 
L 23.046875 37.5 
Q 21.484375 23.046875 19.921875 17.375 
Q 18.359375 11.71875 16.203125 6.4375 
Q 14.0625 1.171875 10.546875 -5.078125 
Q 6.640625 -2.734375 3.125 -1.171875 
Q 7.421875 5.078125 10.34375 12.296875 
Q 13.28125 19.53125 14.640625 27.53125 
Q 16.015625 35.546875 16.40625 57.8125 
Q 10.9375 57.8125 6.25 57.421875 
L 6.25 64.0625 
Q 12.890625 63.671875 23.828125 63.671875 
Q 34.765625 63.671875 44.140625 64.0625 
z
M 29.296875 82.03125 
Q 32.421875 74.609375 34.375 69.140625 
Q 30.078125 68.359375 26.5625 66.40625 
Q 24.21875 75.390625 22.265625 79.6875 
Q 25.390625 80.859375 29.296875 82.03125 
z
" id="SimHei-26059"/>
     </defs>
     <g transform="translate(80.2 40.065937)scale(0.1 -0.1)">
      <use xlink:href="#SimHei-8545"/>
      <use x="100" xlink:href="#SimHei-24038"/>
      <use x="200" xlink:href="#SimHei-26059"/>
     </g>
    </g>
    <g id="line2d_33">
     <path d="M 52.2 50.901875 
L 72.2 50.901875 
" style="fill:none;stroke:#000000;stroke-dasharray:5.55,2.4;stroke-dashoffset:0;stroke-width:1.5;"/>
    </g>
    <g id="line2d_34"/>
    <g id="text_19">
     <!-- Ⅰ右旋 -->
     <defs>
      <path d="M 46.484375 71.09375 
L 53.515625 71.09375 
L 53.515625 3.515625 
L 46.484375 3.515625 
z
" id="SimHei-8544"/>
      <path d="M 53.515625 78.515625 
Q 51.5625 74.609375 50.78125 71.09375 
Q 50 67.578125 48.4375 62.5 
L 77.34375 62.5 
Q 83.59375 62.5 92.96875 62.890625 
L 92.96875 55.078125 
Q 85.9375 55.46875 76.953125 55.46875 
L 46.09375 55.46875 
Q 42.96875 46.09375 37.109375 36.328125 
L 83.203125 36.328125 
Q 82.8125 29.6875 82.8125 22.265625 
L 82.8125 3.90625 
Q 82.8125 -2.34375 83.203125 -10.546875 
L 74.609375 -10.546875 
L 74.609375 -3.515625 
L 34.765625 -3.515625 
L 34.765625 -10.546875 
L 26.5625 -10.546875 
Q 26.953125 -3.515625 26.953125 2.734375 
L 26.953125 21.875 
Q 23.046875 17.1875 19.328125 13.46875 
Q 15.625 9.765625 10.9375 5.859375 
Q 6.640625 10.15625 3.125 12.109375 
Q 7.8125 14.84375 12.5 19.140625 
Q 17.1875 23.4375 22.265625 29.09375 
Q 27.34375 34.765625 31.046875 41.40625 
Q 34.765625 48.046875 37.5 55.46875 
L 23.046875 55.46875 
Q 14.0625 55.46875 6.25 55.078125 
L 6.25 62.890625 
Q 14.0625 62.5 23.4375 62.5 
L 39.453125 62.5 
Q 42.96875 73.4375 43.75 80.859375 
Q 48.828125 79.296875 53.515625 78.515625 
z
M 74.609375 3.515625 
L 74.609375 29.296875 
L 34.765625 29.296875 
L 34.765625 3.515625 
z
" id="SimHei-21491"/>
     </defs>
     <g transform="translate(80.2 54.401875)scale(0.1 -0.1)">
      <use xlink:href="#SimHei-8544"/>
      <use x="100" xlink:href="#SimHei-21491"/>
      <use x="200" xlink:href="#SimHei-26059"/>
     </g>
    </g>
   </g>
  </g>
 </g>
 <defs>
  <clipPath id="p2bcbba98ec">
   <rect height="217.44" width="446.4" x="43.2" y="22.98"/>
  </clipPath>
 </defs>
</svg>
