<?xml version="1.0" encoding="UTF-8" standalone="no"?><svg xmlns="http://www.w3.org/2000/svg" xmlns:xlink="http://www.w3.org/1999/xlink" contentScriptType="application/ecmascript" contentStyleType="text/css" height="1293px" preserveAspectRatio="none" style="width:2167px;height:1293px;" version="1.1" viewBox="0 0 2167 1293" width="2167px" zoomAndPan="magnify"><defs/><g><rect fill="#F8F8F8" height="39.7974" rx="12.5" ry="12.5" style="stroke: #383838; stroke-width: 1.5;" width="50" x="1504.5" y="10"/><text fill="#000000" font-family="微软雅黑" font-size="15" lengthAdjust="spacingAndGlyphs" textLength="30" x="1514.5" y="35.8716">开始</text><polygon fill="#F8F8F8" points="1432,113.7974,1637,113.7974,1627,153.5947,1422,153.5947" style="stroke: #383838; stroke-width: 1.5;"/><text fill="#000000" font-family="微软雅黑" font-size="15" lengthAdjust="spacingAndGlyphs" textLength="195" x="1432" y="139.6689">输出提示信息并等待用户输入</text><polygon fill="#F8F8F8" points="1435,173.8179,1624,173.8179,1636,185.8179,1624,197.8179,1435,197.8179,1423,185.8179,1435,173.8179" style="stroke: #383838; stroke-width: 1.5;"/><text fill="#000000" font-family="微软雅黑" font-size="15" lengthAdjust="spacingAndGlyphs" textLength="189" x="1435" y="191.7908">用户输入的数字在1-9之间？</text><text fill="#000000" font-family="微软雅黑" font-size="15" lengthAdjust="spacingAndGlyphs" textLength="15" x="1408" y="181.8921">是</text><text fill="#000000" font-family="微软雅黑" font-size="15" lengthAdjust="spacingAndGlyphs" textLength="15" x="1636" y="181.8921">否</text><polygon fill="#F8F8F8" points="303,232.8179,447,232.8179,459,244.8179,447,256.8179,303,256.8179,291,244.8179,303,232.8179" style="stroke: #383838; stroke-width: 1.5;"/><text fill="#000000" font-family="微软雅黑" font-size="15" lengthAdjust="spacingAndGlyphs" textLength="15" x="379" y="272.6895">是</text><text fill="#000000" font-family="微软雅黑" font-size="15" lengthAdjust="spacingAndGlyphs" textLength="144" x="303" y="250.7908">用户输入的数字为1？</text><polygon fill="#F8F8F8" points="285,294.4126,475,294.4126,465,334.21,275,334.21" style="stroke: #383838; stroke-width: 1.5;"/><text fill="#000000" font-family="微软雅黑" font-size="15" lengthAdjust="spacingAndGlyphs" textLength="180" x="285" y="320.2842">提示并等待用户输入用户名</text><polygon fill="#F8F8F8" points="322.5,369.21,427.5,369.21,439.5,381.21,427.5,393.21,322.5,393.21,310.5,381.21,322.5,369.21" style="stroke: #383838; stroke-width: 1.5;"/><text fill="#000000" font-family="微软雅黑" font-size="15" lengthAdjust="spacingAndGlyphs" textLength="105" x="322.5" y="387.1829">用户名不为空？</text><text fill="#000000" font-family="微软雅黑" font-size="15" lengthAdjust="spacingAndGlyphs" textLength="15" x="295.5" y="377.2842">是</text><text fill="#000000" font-family="微软雅黑" font-size="15" lengthAdjust="spacingAndGlyphs" textLength="15" x="439.5" y="377.2842">否</text><polygon fill="#F8F8F8" points="160,403.21,335,403.21,325,443.0073,150,443.0073" style="stroke: #383838; stroke-width: 1.5;"/><text fill="#000000" font-family="微软雅黑" font-size="15" lengthAdjust="spacingAndGlyphs" textLength="165" x="160" y="429.0815">提示并等待用户输入密码</text><rect fill="#F8F8F8" height="39.7974" style="stroke: #383838; stroke-width: 1.5;" width="125" x="180" y="478.0073"/><text fill="#000000" font-family="微软雅黑" font-size="15" lengthAdjust="spacingAndGlyphs" textLength="105" x="190" y="503.8789">逐位比较用户名</text><polygon fill="#F8F8F8" points="197.5,552.8047,287.5,552.8047,299.5,564.8047,287.5,576.8047,197.5,576.8047,185.5,564.8047,197.5,552.8047" style="stroke: #383838; stroke-width: 1.5;"/><text fill="#000000" font-family="微软雅黑" font-size="15" lengthAdjust="spacingAndGlyphs" textLength="90" x="197.5" y="570.7776">用户名正确？</text><text fill="#000000" font-family="微软雅黑" font-size="15" lengthAdjust="spacingAndGlyphs" textLength="15" x="170.5" y="560.8789">是</text><text fill="#000000" font-family="微软雅黑" font-size="15" lengthAdjust="spacingAndGlyphs" textLength="15" x="299.5" y="560.8789">否</text><rect fill="#F8F8F8" height="39.7974" style="stroke: #383838; stroke-width: 1.5;" width="110" x="85" y="586.8047"/><text fill="#000000" font-family="微软雅黑" font-size="15" lengthAdjust="spacingAndGlyphs" textLength="90" x="95" y="612.6763">逐位比较密码</text><polygon fill="#F8F8F8" points="102.5,661.6021,177.5,661.6021,189.5,673.6021,177.5,685.6021,102.5,685.6021,90.5,673.6021,102.5,661.6021" style="stroke: #383838; stroke-width: 1.5;"/><text fill="#000000" font-family="微软雅黑" font-size="15" lengthAdjust="spacingAndGlyphs" textLength="75" x="102.5" y="679.575">密码正确？</text><text fill="#000000" font-family="微软雅黑" font-size="15" lengthAdjust="spacingAndGlyphs" textLength="15" x="75.5" y="669.6763">是</text><text fill="#000000" font-family="微软雅黑" font-size="15" lengthAdjust="spacingAndGlyphs" textLength="15" x="189.5" y="669.6763">否</text><rect fill="#F8F8F8" height="39.7974" style="stroke: #383838; stroke-width: 1.5;" width="107" x="21.5" y="695.6021"/><text fill="#000000" font-family="微软雅黑" font-size="15" lengthAdjust="spacingAndGlyphs" textLength="87" x="31.5" y="721.4736">(AUTH) &lt;- 1</text><polygon fill="#F8F8F8" points="30,770.3994,130,770.3994,120,810.1968,20,810.1968" style="stroke: #383838; stroke-width: 1.5;"/><text fill="#000000" font-family="微软雅黑" font-size="15" lengthAdjust="spacingAndGlyphs" textLength="90" x="30" y="796.271">提示登录成功</text><rect fill="#F8F8F8" height="39.7974" style="stroke: #383838; stroke-width: 1.5;" width="107" x="151.5" y="695.6021"/><text fill="#000000" font-family="微软雅黑" font-size="15" lengthAdjust="spacingAndGlyphs" textLength="87" x="161.5" y="721.4736">(AUTH) &lt;- 0</text><polygon fill="#F8F8F8" points="160,770.3994,260,770.3994,250,810.1968,150,810.1968" style="stroke: #383838; stroke-width: 1.5;"/><text fill="#000000" font-family="微软雅黑" font-size="15" lengthAdjust="spacingAndGlyphs" textLength="90" x="160" y="796.271">提示登录失败</text><polygon fill="#F8F8F8" points="140,816.1968,152,828.1968,140,840.1968,128,828.1968,140,816.1968" style="stroke: #383838; stroke-width: 1.5;"/><rect fill="#F8F8F8" height="39.7974" style="stroke: #383838; stroke-width: 1.5;" width="107" x="291.5" y="586.8047"/><text fill="#000000" font-family="微软雅黑" font-size="15" lengthAdjust="spacingAndGlyphs" textLength="87" x="301.5" y="612.6763">(AUTH) &lt;- 0</text><polygon fill="#F8F8F8" points="300,661.6021,400,661.6021,390,701.3994,290,701.3994" style="stroke: #383838; stroke-width: 1.5;"/><text fill="#000000" font-family="微软雅黑" font-size="15" lengthAdjust="spacingAndGlyphs" textLength="90" x="300" y="687.4736">提示登录失败</text><polygon fill="#F8F8F8" points="242.5,846.1968,254.5,858.1968,242.5,870.1968,230.5,858.1968,242.5,846.1968" style="stroke: #383838; stroke-width: 1.5;"/><rect fill="#F8F8F8" height="39.7974" style="stroke: #383838; stroke-width: 1.5;" width="107" x="454" y="403.21"/><text fill="#000000" font-family="微软雅黑" font-size="15" lengthAdjust="spacingAndGlyphs" textLength="87" x="464" y="429.0815">(AUTH) &lt;- 0</text><polygon fill="#F8F8F8" points="440,478.0073,585,478.0073,575,517.8047,430,517.8047" style="stroke: #383838; stroke-width: 1.5;"/><text fill="#000000" font-family="微软雅黑" font-size="15" lengthAdjust="spacingAndGlyphs" textLength="135" x="440" y="503.8789">提示以顾客身份登录</text><polygon fill="#F8F8F8" points="375,876.1968,387,888.1968,375,900.1968,363,888.1968,375,876.1968" style="stroke: #383838; stroke-width: 1.5;"/><polygon fill="#F8F8F8" points="630.5,232.8179,774.5,232.8179,786.5,244.8179,774.5,256.8179,630.5,256.8179,618.5,244.8179,630.5,232.8179" style="stroke: #383838; stroke-width: 1.5;"/><text fill="#000000" font-family="微软雅黑" font-size="15" lengthAdjust="spacingAndGlyphs" textLength="15" x="706.5" y="272.6895">是</text><text fill="#000000" font-family="微软雅黑" font-size="15" lengthAdjust="spacingAndGlyphs" textLength="144" x="630.5" y="250.7908">用户输入的数字为2？</text><text fill="#000000" font-family="微软雅黑" font-size="15" lengthAdjust="spacingAndGlyphs" textLength="15" x="603.5" y="240.8921">否</text><polygon fill="#F8F8F8" points="605,294.4126,810,294.4126,800,334.21,595,334.21" style="stroke: #383838; stroke-width: 1.5;"/><text fill="#000000" font-family="微软雅黑" font-size="15" lengthAdjust="spacingAndGlyphs" textLength="195" x="605" y="320.2842">提示并等待用户输入商品名称</text><rect fill="#F8F8F8" height="39.7974" style="stroke: #383838; stroke-width: 1.5;" width="110" x="647.5" y="441.21"/><text fill="#000000" font-family="微软雅黑" font-size="15" lengthAdjust="spacingAndGlyphs" textLength="90" x="657.5" y="467.0815">枚举每个商品</text><rect fill="#F8F8F8" height="39.7974" style="stroke: #383838; stroke-width: 1.5;" width="140" x="632.5" y="516.0073"/><text fill="#000000" font-family="微软雅黑" font-size="15" lengthAdjust="spacingAndGlyphs" textLength="120" x="642.5" y="541.8789">逐位比较商品名称</text><rect fill="#F8F8F8" height="39.7974" style="stroke: #383838; stroke-width: 1.5;" width="171" x="617" y="642.7034"/><text fill="#000000" font-family="微软雅黑" font-size="15" lengthAdjust="spacingAndGlyphs" textLength="151" x="627" y="668.575">记录商品地址到GOOD</text><polygon fill="#F8F8F8" points="657.5,717.5007,757.5,717.5007,747.5,757.2981,647.5,757.2981" style="stroke: #383838; stroke-width: 1.5;"/><text fill="#000000" font-family="微软雅黑" font-size="15" lengthAdjust="spacingAndGlyphs" textLength="90" x="657.5" y="743.3723">提示找到商品</text><polygon fill="#F8F8F8" points="650,590.8047,755,590.8047,767,602.8047,755,614.8047,650,614.8047,638,602.8047,650,590.8047" style="stroke: #383838; stroke-width: 1.5;"/><text fill="#000000" font-family="微软雅黑" font-size="15" lengthAdjust="spacingAndGlyphs" textLength="15" x="706.5" y="630.6763">是</text><text fill="#000000" font-family="微软雅黑" font-size="15" lengthAdjust="spacingAndGlyphs" textLength="105" x="650" y="608.7776">商品名称相等？</text><text fill="#000000" font-family="微软雅黑" font-size="15" lengthAdjust="spacingAndGlyphs" textLength="15" x="767" y="598.8789">否</text><polygon fill="#F8F8F8" points="702.5,369.21,714.5,381.21,702.5,393.21,690.5,381.21,702.5,369.21" style="stroke: #383838; stroke-width: 1.5;"/><polygon fill="#F8F8F8" points="665,874.1968,740,874.1968,752,886.1968,740,898.1968,665,898.1968,653,886.1968,665,874.1968" style="stroke: #383838; stroke-width: 1.5;"/><text fill="#000000" font-family="微软雅黑" font-size="15" lengthAdjust="spacingAndGlyphs" textLength="15" x="706.5" y="914.0684">否</text><text fill="#000000" font-family="微软雅黑" font-size="15" lengthAdjust="spacingAndGlyphs" textLength="75" x="665" y="892.1697">还有商品？</text><text fill="#000000" font-family="微软雅黑" font-size="15" lengthAdjust="spacingAndGlyphs" textLength="15" x="752" y="882.271">是</text><polygon fill="#F8F8F8" points="702.5,933.1968,714.5,945.1968,702.5,957.1968,690.5,945.1968,702.5,933.1968" style="stroke: #383838; stroke-width: 1.5;"/><polygon fill="#F8F8F8" points="657.5,1029.3186,757.5,1029.3186,747.5,1069.116,647.5,1069.116" style="stroke: #383838; stroke-width: 1.5;"/><text fill="#000000" font-family="微软雅黑" font-size="15" lengthAdjust="spacingAndGlyphs" textLength="90" x="657.5" y="1055.1902">提示没有找到</text><polygon fill="#F8F8F8" points="635,977.4199,770,977.4199,782,989.4199,770,1001.4199,635,1001.4199,623,989.4199,635,977.4199" style="stroke: #383838; stroke-width: 1.5;"/><text fill="#000000" font-family="微软雅黑" font-size="15" lengthAdjust="spacingAndGlyphs" textLength="15" x="706.5" y="1017.2915">是</text><text fill="#000000" font-family="微软雅黑" font-size="15" lengthAdjust="spacingAndGlyphs" textLength="135" x="635" y="995.3928">没有商品名称相等？</text><text fill="#000000" font-family="微软雅黑" font-size="15" lengthAdjust="spacingAndGlyphs" textLength="15" x="782" y="985.4941">否</text><polygon fill="#F8F8F8" points="702.5,1089.116,714.5,1101.116,702.5,1113.116,690.5,1101.116,702.5,1089.116" style="stroke: #383838; stroke-width: 1.5;"/><polygon fill="#F8F8F8" points="1164.25,232.8179,1308.25,232.8179,1320.25,244.8179,1308.25,256.8179,1164.25,256.8179,1152.25,244.8179,1164.25,232.8179" style="stroke: #383838; stroke-width: 1.5;"/><text fill="#000000" font-family="微软雅黑" font-size="15" lengthAdjust="spacingAndGlyphs" textLength="15" x="1240.25" y="272.6895">是</text><text fill="#000000" font-family="微软雅黑" font-size="15" lengthAdjust="spacingAndGlyphs" textLength="144" x="1164.25" y="250.7908">用户输入的数字为3？</text><text fill="#000000" font-family="微软雅黑" font-size="15" lengthAdjust="spacingAndGlyphs" textLength="15" x="1137.25" y="240.8921">否</text><polygon fill="#F8F8F8" points="1183.25,294.4126,1289.25,294.4126,1301.25,306.4126,1289.25,318.4126,1183.25,318.4126,1171.25,306.4126,1183.25,294.4126" style="stroke: #383838; stroke-width: 1.5;"/><text fill="#000000" font-family="微软雅黑" font-size="15" lengthAdjust="spacingAndGlyphs" textLength="106" x="1183.25" y="312.3855">GOOD不为空？</text><text fill="#000000" font-family="微软雅黑" font-size="15" lengthAdjust="spacingAndGlyphs" textLength="15" x="1156.25" y="302.4868">是</text><text fill="#000000" font-family="微软雅黑" font-size="15" lengthAdjust="spacingAndGlyphs" textLength="15" x="1301.25" y="302.4868">否</text><polygon fill="#F8F8F8" points="958,328.4126,1193,328.4126,1205,340.4126,1193,352.4126,958,352.4126,946,340.4126,958,328.4126" style="stroke: #383838; stroke-width: 1.5;"/><text fill="#000000" font-family="微软雅黑" font-size="15" lengthAdjust="spacingAndGlyphs" textLength="235" x="958" y="346.3855">GOOD记录的商品剩余数量不为0？</text><text fill="#000000" font-family="微软雅黑" font-size="15" lengthAdjust="spacingAndGlyphs" textLength="15" x="931" y="336.4868">是</text><text fill="#000000" font-family="微软雅黑" font-size="15" lengthAdjust="spacingAndGlyphs" textLength="15" x="1205" y="336.4868">否</text><rect fill="#F8F8F8" height="39.7974" style="stroke: #383838; stroke-width: 1.5;" width="95" x="888.5" y="362.4126"/><text fill="#000000" font-family="微软雅黑" font-size="15" lengthAdjust="spacingAndGlyphs" textLength="75" x="898.5" y="388.2842">剩余数量-1</text><rect fill="#F8F8F8" height="39.7974" style="stroke: #383838; stroke-width: 1.5;" width="200" x="836" y="437.21"/><text fill="#000000" font-family="微软雅黑" font-size="15" lengthAdjust="spacingAndGlyphs" textLength="180" x="846" y="463.0815">将返回地址传入变量return</text><rect fill="#F8F8F8" height="39.7974" style="stroke: #383838; stroke-width: 1.5;" width="185" x="843.5" y="512.0073"/><text fill="#000000" font-family="微软雅黑" font-size="15" lengthAdjust="spacingAndGlyphs" textLength="165" x="853.5" y="537.8789">跳转到计算商品推荐度处</text><rect fill="#F8F8F8" height="39.7974" style="stroke: #383838; stroke-width: 1.5;" width="119" x="876.5" y="586.8047"/><text fill="#000000" font-family="微软雅黑" font-size="15" lengthAdjust="spacingAndGlyphs" textLength="99" x="886.5" y="612.6763">([return]) &lt;- 0</text><polygon fill="#F8F8F8" points="1143,362.4126,1297,362.4126,1287,402.21,1133,402.21" style="stroke: #383838; stroke-width: 1.5;"/><text fill="#000000" font-family="微软雅黑" font-size="15" lengthAdjust="spacingAndGlyphs" textLength="144" x="1143" y="388.2842">提示商品剩余数量为0</text><polygon fill="#F8F8F8" points="1075.5,632.6021,1087.5,644.6021,1075.5,656.6021,1063.5,644.6021,1075.5,632.6021" style="stroke: #383838; stroke-width: 1.5;"/><polygon fill="#F8F8F8" points="1337,328.4126,1467,328.4126,1457,368.21,1327,368.21" style="stroke: #383838; stroke-width: 1.5;"/><text fill="#000000" font-family="微软雅黑" font-size="15" lengthAdjust="spacingAndGlyphs" textLength="120" x="1337" y="354.2842">提示还没选择商品</text><polygon fill="#F8F8F8" points="1236.25,662.6021,1248.25,674.6021,1236.25,686.6021,1224.25,674.6021,1236.25,662.6021" style="stroke: #383838; stroke-width: 1.5;"/><polygon fill="#F8F8F8" points="1557.5,232.8179,1701.5,232.8179,1713.5,244.8179,1701.5,256.8179,1557.5,256.8179,1545.5,244.8179,1557.5,232.8179" style="stroke: #383838; stroke-width: 1.5;"/><text fill="#000000" font-family="微软雅黑" font-size="15" lengthAdjust="spacingAndGlyphs" textLength="15" x="1633.5" y="272.6895">是</text><text fill="#000000" font-family="微软雅黑" font-size="15" lengthAdjust="spacingAndGlyphs" textLength="144" x="1557.5" y="250.7908">用户输入的数字为4？</text><text fill="#000000" font-family="微软雅黑" font-size="15" lengthAdjust="spacingAndGlyphs" textLength="15" x="1530.5" y="240.8921">否</text><rect fill="#F8F8F8" height="39.7974" style="stroke: #383838; stroke-width: 1.5;" width="170" x="1544.5" y="294.4126"/><text fill="#000000" font-family="微软雅黑" font-size="15" lengthAdjust="spacingAndGlyphs" textLength="150" x="1554.5" y="320.2842">依次计算商品的推荐度</text><rect fill="#F8F8F8" height="39.7974" style="stroke: #383838; stroke-width: 1.5;" width="215" x="1522" y="421.1086"/><text fill="#000000" font-family="微软雅黑" font-size="15" lengthAdjust="spacingAndGlyphs" textLength="195" x="1532" y="446.9802">返回到变量return指向的地址</text><polygon fill="#F8F8F8" points="1557.5,369.21,1701.5,369.21,1713.5,381.21,1701.5,393.21,1557.5,393.21,1545.5,381.21,1557.5,369.21" style="stroke: #383838; stroke-width: 1.5;"/><text fill="#000000" font-family="微软雅黑" font-size="15" lengthAdjust="spacingAndGlyphs" textLength="15" x="1633.5" y="409.0815">是</text><text fill="#000000" font-family="微软雅黑" font-size="15" lengthAdjust="spacingAndGlyphs" textLength="144" x="1557.5" y="387.1829">变量return不等于0？</text><text fill="#000000" font-family="微软雅黑" font-size="15" lengthAdjust="spacingAndGlyphs" textLength="15" x="1713.5" y="377.2842">否</text><polygon fill="#F8F8F8" points="1629.5,488.8047,1641.5,500.8047,1629.5,512.8047,1617.5,500.8047,1629.5,488.8047" style="stroke: #383838; stroke-width: 1.5;"/><polygon fill="#F8F8F8" points="1788,232.8179,1932,232.8179,1944,244.8179,1932,256.8179,1788,256.8179,1776,244.8179,1788,232.8179" style="stroke: #383838; stroke-width: 1.5;"/><text fill="#000000" font-family="微软雅黑" font-size="15" lengthAdjust="spacingAndGlyphs" textLength="15" x="1864" y="272.6895">是</text><text fill="#000000" font-family="微软雅黑" font-size="15" lengthAdjust="spacingAndGlyphs" textLength="144" x="1788" y="250.7908">用户输入的数字为8？</text><text fill="#000000" font-family="微软雅黑" font-size="15" lengthAdjust="spacingAndGlyphs" textLength="15" x="1761" y="240.8921">否</text><text fill="#000000" font-family="微软雅黑" font-size="15" lengthAdjust="spacingAndGlyphs" textLength="15" x="1944" y="240.8921">否</text><polygon fill="#F8F8F8" points="1830.5,294.4126,1899.5,294.4126,1889.5,334.21,1820.5,334.21" style="stroke: #383838; stroke-width: 1.5;"/><text fill="#000000" font-family="微软雅黑" font-size="15" lengthAdjust="spacingAndGlyphs" textLength="59" x="1830.5" y="320.2842">输出(CS)</text><polygon fill="#F8F8F8" points="1997,207.8179,2127,207.8179,2117,247.6152,1987,247.6152" style="stroke: #383838; stroke-width: 1.5;"/><text fill="#000000" font-family="微软雅黑" font-size="15" lengthAdjust="spacingAndGlyphs" textLength="120" x="1997" y="233.6895">提示用户输错操作</text><polygon fill="#F8F8F8" points="1529.5,1139.116,1541.5,1151.116,1529.5,1163.116,1517.5,1151.116,1529.5,1139.116" style="stroke: #383838; stroke-width: 1.5;"/><polygon fill="#F8F8F8" points="1529.5,69.7974,1541.5,81.7974,1529.5,93.7974,1517.5,81.7974,1529.5,69.7974" style="stroke: #383838; stroke-width: 1.5;"/><polygon fill="#F8F8F8" points="1450,1183.3391,1609,1183.3391,1621,1195.3391,1609,1207.3391,1450,1207.3391,1438,1195.3391,1450,1183.3391" style="stroke: #383838; stroke-width: 1.5;"/><text fill="#000000" font-family="微软雅黑" font-size="15" lengthAdjust="spacingAndGlyphs" textLength="15" x="1533.5" y="1223.2107">是</text><text fill="#000000" font-family="微软雅黑" font-size="15" lengthAdjust="spacingAndGlyphs" textLength="159" x="1450" y="1201.312">用户输入的数是不是9？</text><text fill="#000000" font-family="微软雅黑" font-size="15" lengthAdjust="spacingAndGlyphs" textLength="30" x="1621" y="1191.4133">不是</text><rect fill="#F8F8F8" height="39.7974" rx="12.5" ry="12.5" style="stroke: #383838; stroke-width: 1.5;" width="50" x="1504.5" y="1242.3391"/><text fill="#000000" font-family="微软雅黑" font-size="15" lengthAdjust="spacingAndGlyphs" textLength="30" x="1514.5" y="1268.2107">结束</text><line style="stroke: #383838; stroke-width: 1.5;" x1="242.5" x2="242.5" y1="443.0073" y2="478.0073"/><polygon fill="#383838" points="238.5,468.0073,242.5,478.0073,246.5,468.0073,242.5,472.0073" style="stroke: #383838; stroke-width: 1.0;"/><line style="stroke: #383838; stroke-width: 1.5;" x1="75" x2="75" y1="735.3994" y2="770.3994"/><polygon fill="#383838" points="71,760.3994,75,770.3994,79,760.3994,75,764.3994" style="stroke: #383838; stroke-width: 1.0;"/><line style="stroke: #383838; stroke-width: 1.5;" x1="205" x2="205" y1="735.3994" y2="770.3994"/><polygon fill="#383838" points="201,760.3994,205,770.3994,209,760.3994,205,764.3994" style="stroke: #383838; stroke-width: 1.0;"/><line style="stroke: #383838; stroke-width: 1.5;" x1="90.5" x2="75" y1="673.6021" y2="673.6021"/><line style="stroke: #383838; stroke-width: 1.5;" x1="75" x2="75" y1="673.6021" y2="695.6021"/><polygon fill="#383838" points="71,685.6021,75,695.6021,79,685.6021,75,689.6021" style="stroke: #383838; stroke-width: 1.0;"/><line style="stroke: #383838; stroke-width: 1.5;" x1="189.5" x2="205" y1="673.6021" y2="673.6021"/><line style="stroke: #383838; stroke-width: 1.5;" x1="205" x2="205" y1="673.6021" y2="695.6021"/><polygon fill="#383838" points="201,685.6021,205,695.6021,209,685.6021,205,689.6021" style="stroke: #383838; stroke-width: 1.0;"/><line style="stroke: #383838; stroke-width: 1.5;" x1="75" x2="75" y1="810.1968" y2="828.1968"/><line style="stroke: #383838; stroke-width: 1.5;" x1="75" x2="128" y1="828.1968" y2="828.1968"/><polygon fill="#383838" points="118,824.1968,128,828.1968,118,832.1968,122,828.1968" style="stroke: #383838; stroke-width: 1.0;"/><line style="stroke: #383838; stroke-width: 1.5;" x1="205" x2="205" y1="810.1968" y2="828.1968"/><line style="stroke: #383838; stroke-width: 1.5;" x1="205" x2="152" y1="828.1968" y2="828.1968"/><polygon fill="#383838" points="162,824.1968,152,828.1968,162,832.1968,158,828.1968" style="stroke: #383838; stroke-width: 1.0;"/><line style="stroke: #383838; stroke-width: 1.5;" x1="140" x2="140" y1="626.6021" y2="661.6021"/><polygon fill="#383838" points="136,651.6021,140,661.6021,144,651.6021,140,655.6021" style="stroke: #383838; stroke-width: 1.0;"/><line style="stroke: #383838; stroke-width: 1.5;" x1="345" x2="345" y1="626.6021" y2="661.6021"/><polygon fill="#383838" points="341,651.6021,345,661.6021,349,651.6021,345,655.6021" style="stroke: #383838; stroke-width: 1.0;"/><line style="stroke: #383838; stroke-width: 1.5;" x1="185.5" x2="140" y1="564.8047" y2="564.8047"/><line style="stroke: #383838; stroke-width: 1.5;" x1="140" x2="140" y1="564.8047" y2="586.8047"/><polygon fill="#383838" points="136,576.8047,140,586.8047,144,576.8047,140,580.8047" style="stroke: #383838; stroke-width: 1.0;"/><line style="stroke: #383838; stroke-width: 1.5;" x1="299.5" x2="345" y1="564.8047" y2="564.8047"/><line style="stroke: #383838; stroke-width: 1.5;" x1="345" x2="345" y1="564.8047" y2="586.8047"/><polygon fill="#383838" points="341,576.8047,345,586.8047,349,576.8047,345,580.8047" style="stroke: #383838; stroke-width: 1.0;"/><line style="stroke: #383838; stroke-width: 1.5;" x1="140" x2="140" y1="840.1968" y2="858.1968"/><line style="stroke: #383838; stroke-width: 1.5;" x1="140" x2="230.5" y1="858.1968" y2="858.1968"/><polygon fill="#383838" points="220.5,854.1968,230.5,858.1968,220.5,862.1968,224.5,858.1968" style="stroke: #383838; stroke-width: 1.0;"/><line style="stroke: #383838; stroke-width: 1.5;" x1="345" x2="345" y1="701.3994" y2="858.1968"/><line style="stroke: #383838; stroke-width: 1.5;" x1="345" x2="254.5" y1="858.1968" y2="858.1968"/><polygon fill="#383838" points="264.5,854.1968,254.5,858.1968,264.5,862.1968,260.5,858.1968" style="stroke: #383838; stroke-width: 1.0;"/><line style="stroke: #383838; stroke-width: 1.5;" x1="242.5" x2="242.5" y1="517.8047" y2="552.8047"/><polygon fill="#383838" points="238.5,542.8047,242.5,552.8047,246.5,542.8047,242.5,546.8047" style="stroke: #383838; stroke-width: 1.0;"/><line style="stroke: #383838; stroke-width: 1.5;" x1="507.5" x2="507.5" y1="443.0073" y2="478.0073"/><polygon fill="#383838" points="503.5,468.0073,507.5,478.0073,511.5,468.0073,507.5,472.0073" style="stroke: #383838; stroke-width: 1.0;"/><line style="stroke: #383838; stroke-width: 1.5;" x1="310.5" x2="242.5" y1="381.21" y2="381.21"/><line style="stroke: #383838; stroke-width: 1.5;" x1="242.5" x2="242.5" y1="381.21" y2="403.21"/><polygon fill="#383838" points="238.5,393.21,242.5,403.21,246.5,393.21,242.5,397.21" style="stroke: #383838; stroke-width: 1.0;"/><line style="stroke: #383838; stroke-width: 1.5;" x1="439.5" x2="507.5" y1="381.21" y2="381.21"/><line style="stroke: #383838; stroke-width: 1.5;" x1="507.5" x2="507.5" y1="381.21" y2="403.21"/><polygon fill="#383838" points="503.5,393.21,507.5,403.21,511.5,393.21,507.5,397.21" style="stroke: #383838; stroke-width: 1.0;"/><line style="stroke: #383838; stroke-width: 1.5;" x1="242.5" x2="242.5" y1="870.1968" y2="888.1968"/><line style="stroke: #383838; stroke-width: 1.5;" x1="242.5" x2="363" y1="888.1968" y2="888.1968"/><polygon fill="#383838" points="353,884.1968,363,888.1968,353,892.1968,357,888.1968" style="stroke: #383838; stroke-width: 1.0;"/><line style="stroke: #383838; stroke-width: 1.5;" x1="507.5" x2="507.5" y1="517.8047" y2="888.1968"/><line style="stroke: #383838; stroke-width: 1.5;" x1="507.5" x2="387" y1="888.1968" y2="888.1968"/><polygon fill="#383838" points="397,884.1968,387,888.1968,397,892.1968,393,888.1968" style="stroke: #383838; stroke-width: 1.0;"/><line style="stroke: #383838; stroke-width: 1.5;" x1="375" x2="375" y1="334.21" y2="369.21"/><polygon fill="#383838" points="371,359.21,375,369.21,379,359.21,375,363.21" style="stroke: #383838; stroke-width: 1.0;"/><line style="stroke: #383838; stroke-width: 1.5;" x1="702.5" x2="702.5" y1="481.0073" y2="516.0073"/><polygon fill="#383838" points="698.5,506.0073,702.5,516.0073,706.5,506.0073,702.5,510.0073" style="stroke: #383838; stroke-width: 1.0;"/><line style="stroke: #383838; stroke-width: 1.5;" x1="702.5" x2="702.5" y1="682.5007" y2="717.5007"/><polygon fill="#383838" points="698.5,707.5007,702.5,717.5007,706.5,707.5007,702.5,711.5007" style="stroke: #383838; stroke-width: 1.0;"/><line style="stroke: #383838; stroke-width: 1.5;" x1="702.5" x2="702.5" y1="757.2981" y2="792.2981"/><line style="stroke: #383838; stroke-width: 1.5;" x1="702.5" x2="597" y1="792.2981" y2="792.2981"/><line style="stroke: #383838; stroke-width: 1.5;" x1="597" x2="597" y1="792.2981" y2="945.1968"/><line style="stroke: #383838; stroke-width: 1.5;" x1="597" x2="690.5" y1="945.1968" y2="945.1968"/><polygon fill="#383838" points="680.5,941.1968,690.5,945.1968,680.5,949.1968,684.5,945.1968" style="stroke: #383838; stroke-width: 1.0;"/><line style="stroke: #383838; stroke-width: 1.5;" x1="702.5" x2="702.5" y1="614.8047" y2="642.7034"/><polygon fill="#383838" points="698.5,632.7034,702.5,642.7034,706.5,632.7034,702.5,636.7034" style="stroke: #383838; stroke-width: 1.0;"/><line style="stroke: #383838; stroke-width: 1.5;" x1="767" x2="798" y1="602.8047" y2="602.8047"/><polygon fill="#383838" points="794,704.5007,798,714.5007,802,704.5007,798,708.5007" style="stroke: #383838; stroke-width: 1.5;"/><line style="stroke: #383838; stroke-width: 1.5;" x1="798" x2="798" y1="602.8047" y2="826.1968"/><line style="stroke: #383838; stroke-width: 1.5;" x1="798" x2="702.5" y1="826.1968" y2="826.1968"/><line style="stroke: #383838; stroke-width: 1.5;" x1="702.5" x2="702.5" y1="826.1968" y2="874.1968"/><polygon fill="#383838" points="698.5,864.1968,702.5,874.1968,706.5,864.1968,702.5,868.1968" style="stroke: #383838; stroke-width: 1.0;"/><line style="stroke: #383838; stroke-width: 1.5;" x1="702.5" x2="702.5" y1="555.8047" y2="590.8047"/><polygon fill="#383838" points="698.5,580.8047,702.5,590.8047,706.5,580.8047,702.5,584.8047" style="stroke: #383838; stroke-width: 1.0;"/><line style="stroke: #383838; stroke-width: 1.5;" x1="702.5" x2="702.5" y1="393.21" y2="441.21"/><polygon fill="#383838" points="698.5,431.21,702.5,441.21,706.5,431.21,702.5,435.21" style="stroke: #383838; stroke-width: 1.0;"/><line style="stroke: #383838; stroke-width: 1.5;" x1="752" x2="822" y1="886.1968" y2="886.1968"/><polygon fill="#383838" points="818,643.7034,822,633.7034,826,643.7034,822,639.7034" style="stroke: #383838; stroke-width: 1.5;"/><line style="stroke: #383838; stroke-width: 1.5;" x1="822" x2="822" y1="381.21" y2="886.1968"/><line style="stroke: #383838; stroke-width: 1.5;" x1="822" x2="714.5" y1="381.21" y2="381.21"/><polygon fill="#383838" points="724.5,377.21,714.5,381.21,724.5,385.21,720.5,381.21" style="stroke: #383838; stroke-width: 1.0;"/><line style="stroke: #383838; stroke-width: 1.5;" x1="702.5" x2="702.5" y1="898.1968" y2="933.1968"/><polygon fill="#383838" points="698.5,923.1968,702.5,933.1968,706.5,923.1968,702.5,927.1968" style="stroke: #383838; stroke-width: 1.0;"/><line style="stroke: #383838; stroke-width: 1.5;" x1="702.5" x2="702.5" y1="334.21" y2="369.21"/><polygon fill="#383838" points="698.5,359.21,702.5,369.21,706.5,359.21,702.5,363.21" style="stroke: #383838; stroke-width: 1.0;"/><line style="stroke: #383838; stroke-width: 1.5;" x1="702.5" x2="702.5" y1="1001.4199" y2="1029.3186"/><polygon fill="#383838" points="698.5,1019.3186,702.5,1029.3186,706.5,1019.3186,702.5,1023.3186" style="stroke: #383838; stroke-width: 1.0;"/><line style="stroke: #383838; stroke-width: 1.5;" x1="782" x2="794" y1="989.4199" y2="989.4199"/><polygon fill="#383838" points="790,1039.2173,794,1049.2173,798,1039.2173,794,1043.2173" style="stroke: #383838; stroke-width: 1.5;"/><line style="stroke: #383838; stroke-width: 1.5;" x1="794" x2="794" y1="989.4199" y2="1101.116"/><line style="stroke: #383838; stroke-width: 1.5;" x1="794" x2="714.5" y1="1101.116" y2="1101.116"/><polygon fill="#383838" points="724.5,1097.116,714.5,1101.116,724.5,1105.116,720.5,1101.116" style="stroke: #383838; stroke-width: 1.0;"/><line style="stroke: #383838; stroke-width: 1.5;" x1="702.5" x2="702.5" y1="1069.116" y2="1089.116"/><polygon fill="#383838" points="698.5,1079.116,702.5,1089.116,706.5,1079.116,702.5,1083.116" style="stroke: #383838; stroke-width: 1.0;"/><line style="stroke: #383838; stroke-width: 1.5;" x1="702.5" x2="702.5" y1="957.1968" y2="977.4199"/><polygon fill="#383838" points="698.5,967.4199,702.5,977.4199,706.5,967.4199,702.5,971.4199" style="stroke: #383838; stroke-width: 1.0;"/><line style="stroke: #383838; stroke-width: 1.5;" x1="936" x2="936" y1="402.21" y2="437.21"/><polygon fill="#383838" points="932,427.21,936,437.21,940,427.21,936,431.21" style="stroke: #383838; stroke-width: 1.0;"/><line style="stroke: #383838; stroke-width: 1.5;" x1="936" x2="936" y1="477.0073" y2="512.0073"/><polygon fill="#383838" points="932,502.0073,936,512.0073,940,502.0073,936,506.0073" style="stroke: #383838; stroke-width: 1.0;"/><line style="stroke: #383838; stroke-width: 1.5;" x1="936" x2="936" y1="551.8047" y2="586.8047"/><polygon fill="#383838" points="932,576.8047,936,586.8047,940,576.8047,936,580.8047" style="stroke: #383838; stroke-width: 1.0;"/><line style="stroke: #383838; stroke-width: 1.5;" x1="946" x2="936" y1="340.4126" y2="340.4126"/><line style="stroke: #383838; stroke-width: 1.5;" x1="936" x2="936" y1="340.4126" y2="362.4126"/><polygon fill="#383838" points="932,352.4126,936,362.4126,940,352.4126,936,356.4126" style="stroke: #383838; stroke-width: 1.0;"/><line style="stroke: #383838; stroke-width: 1.5;" x1="1205" x2="1215" y1="340.4126" y2="340.4126"/><line style="stroke: #383838; stroke-width: 1.5;" x1="1215" x2="1215" y1="340.4126" y2="362.4126"/><polygon fill="#383838" points="1211,352.4126,1215,362.4126,1219,352.4126,1215,356.4126" style="stroke: #383838; stroke-width: 1.0;"/><line style="stroke: #383838; stroke-width: 1.5;" x1="936" x2="936" y1="626.6021" y2="644.6021"/><line style="stroke: #383838; stroke-width: 1.5;" x1="936" x2="1063.5" y1="644.6021" y2="644.6021"/><polygon fill="#383838" points="1053.5,640.6021,1063.5,644.6021,1053.5,648.6021,1057.5,644.6021" style="stroke: #383838; stroke-width: 1.0;"/><line style="stroke: #383838; stroke-width: 1.5;" x1="1215" x2="1215" y1="402.21" y2="644.6021"/><line style="stroke: #383838; stroke-width: 1.5;" x1="1215" x2="1087.5" y1="644.6021" y2="644.6021"/><polygon fill="#383838" points="1097.5,640.6021,1087.5,644.6021,1097.5,648.6021,1093.5,644.6021" style="stroke: #383838; stroke-width: 1.0;"/><line style="stroke: #383838; stroke-width: 1.5;" x1="1171.25" x2="1075.5" y1="306.4126" y2="306.4126"/><line style="stroke: #383838; stroke-width: 1.5;" x1="1075.5" x2="1075.5" y1="306.4126" y2="328.4126"/><polygon fill="#383838" points="1071.5,318.4126,1075.5,328.4126,1079.5,318.4126,1075.5,322.4126" style="stroke: #383838; stroke-width: 1.0;"/><line style="stroke: #383838; stroke-width: 1.5;" x1="1301.25" x2="1397" y1="306.4126" y2="306.4126"/><line style="stroke: #383838; stroke-width: 1.5;" x1="1397" x2="1397" y1="306.4126" y2="328.4126"/><polygon fill="#383838" points="1393,318.4126,1397,328.4126,1401,318.4126,1397,322.4126" style="stroke: #383838; stroke-width: 1.0;"/><line style="stroke: #383838; stroke-width: 1.5;" x1="1075.5" x2="1075.5" y1="656.6021" y2="674.6021"/><line style="stroke: #383838; stroke-width: 1.5;" x1="1075.5" x2="1224.25" y1="674.6021" y2="674.6021"/><polygon fill="#383838" points="1214.25,670.6021,1224.25,674.6021,1214.25,678.6021,1218.25,674.6021" style="stroke: #383838; stroke-width: 1.0;"/><line style="stroke: #383838; stroke-width: 1.5;" x1="1397" x2="1397" y1="368.21" y2="674.6021"/><line style="stroke: #383838; stroke-width: 1.5;" x1="1397" x2="1248.25" y1="674.6021" y2="674.6021"/><polygon fill="#383838" points="1258.25,670.6021,1248.25,674.6021,1258.25,678.6021,1254.25,674.6021" style="stroke: #383838; stroke-width: 1.0;"/><line style="stroke: #383838; stroke-width: 1.5;" x1="1629.5" x2="1629.5" y1="393.21" y2="421.1086"/><polygon fill="#383838" points="1625.5,411.1086,1629.5,421.1086,1633.5,411.1086,1629.5,415.1086" style="stroke: #383838; stroke-width: 1.0;"/><line style="stroke: #383838; stroke-width: 1.5;" x1="1713.5" x2="1747" y1="381.21" y2="381.21"/><polygon fill="#383838" points="1743,431.0073,1747,441.0073,1751,431.0073,1747,435.0073" style="stroke: #383838; stroke-width: 1.5;"/><line style="stroke: #383838; stroke-width: 1.5;" x1="1747" x2="1747" y1="381.21" y2="500.8047"/><line style="stroke: #383838; stroke-width: 1.5;" x1="1747" x2="1641.5" y1="500.8047" y2="500.8047"/><polygon fill="#383838" points="1651.5,496.8047,1641.5,500.8047,1651.5,504.8047,1647.5,500.8047" style="stroke: #383838; stroke-width: 1.0;"/><line style="stroke: #383838; stroke-width: 1.5;" x1="1629.5" x2="1629.5" y1="460.906" y2="488.8047"/><polygon fill="#383838" points="1625.5,478.8047,1629.5,488.8047,1633.5,478.8047,1629.5,482.8047" style="stroke: #383838; stroke-width: 1.0;"/><line style="stroke: #383838; stroke-width: 1.5;" x1="1629.5" x2="1629.5" y1="334.21" y2="369.21"/><polygon fill="#383838" points="1625.5,359.21,1629.5,369.21,1633.5,359.21,1629.5,363.21" style="stroke: #383838; stroke-width: 1.0;"/><line style="stroke: #383838; stroke-width: 1.5;" x1="375" x2="375" y1="256.8179" y2="294.4126"/><polygon fill="#383838" points="371,284.4126,375,294.4126,379,284.4126,375,288.4126" style="stroke: #383838; stroke-width: 1.0;"/><line style="stroke: #383838; stroke-width: 1.5;" x1="375" x2="375" y1="900.1968" y2="1133.116"/><polygon fill="#383838" points="371,1123.116,375,1133.116,379,1123.116,375,1127.116" style="stroke: #383838; stroke-width: 1.0;"/><line style="stroke: #383838; stroke-width: 1.5;" x1="702.5" x2="702.5" y1="256.8179" y2="294.4126"/><polygon fill="#383838" points="698.5,284.4126,702.5,294.4126,706.5,284.4126,702.5,288.4126" style="stroke: #383838; stroke-width: 1.0;"/><line style="stroke: #383838; stroke-width: 1.5;" x1="702.5" x2="702.5" y1="1113.116" y2="1133.116"/><polygon fill="#383838" points="698.5,1123.116,702.5,1133.116,706.5,1123.116,702.5,1127.116" style="stroke: #383838; stroke-width: 1.0;"/><line style="stroke: #383838; stroke-width: 1.5;" x1="1236.25" x2="1236.25" y1="256.8179" y2="294.4126"/><polygon fill="#383838" points="1232.25,284.4126,1236.25,294.4126,1240.25,284.4126,1236.25,288.4126" style="stroke: #383838; stroke-width: 1.0;"/><line style="stroke: #383838; stroke-width: 1.5;" x1="1236.25" x2="1236.25" y1="686.6021" y2="1133.116"/><polygon fill="#383838" points="1232.25,1123.116,1236.25,1133.116,1240.25,1123.116,1236.25,1127.116" style="stroke: #383838; stroke-width: 1.0;"/><line style="stroke: #383838; stroke-width: 1.5;" x1="1629.5" x2="1629.5" y1="256.8179" y2="294.4126"/><polygon fill="#383838" points="1625.5,284.4126,1629.5,294.4126,1633.5,284.4126,1629.5,288.4126" style="stroke: #383838; stroke-width: 1.0;"/><line style="stroke: #383838; stroke-width: 1.5;" x1="1629.5" x2="1629.5" y1="512.8047" y2="1133.116"/><polygon fill="#383838" points="1625.5,1123.116,1629.5,1133.116,1633.5,1123.116,1629.5,1127.116" style="stroke: #383838; stroke-width: 1.0;"/><line style="stroke: #383838; stroke-width: 1.5;" x1="1860" x2="1860" y1="256.8179" y2="294.4126"/><polygon fill="#383838" points="1856,284.4126,1860,294.4126,1864,284.4126,1860,288.4126" style="stroke: #383838; stroke-width: 1.0;"/><line style="stroke: #383838; stroke-width: 1.5;" x1="1860" x2="1860" y1="334.21" y2="1133.116"/><polygon fill="#383838" points="1856,1123.116,1860,1133.116,1864,1123.116,1860,1127.116" style="stroke: #383838; stroke-width: 1.0;"/><line style="stroke: #383838; stroke-width: 1.5;" x1="459" x2="618.5" y1="244.8179" y2="244.8179"/><polygon fill="#383838" points="608.5,240.8179,618.5,244.8179,608.5,248.8179,612.5,244.8179" style="stroke: #383838; stroke-width: 1.0;"/><line style="stroke: #383838; stroke-width: 1.5;" x1="786.5" x2="1152.25" y1="244.8179" y2="244.8179"/><polygon fill="#383838" points="1142.25,240.8179,1152.25,244.8179,1142.25,248.8179,1146.25,244.8179" style="stroke: #383838; stroke-width: 1.0;"/><line style="stroke: #383838; stroke-width: 1.5;" x1="1320.25" x2="1545.5" y1="244.8179" y2="244.8179"/><polygon fill="#383838" points="1535.5,240.8179,1545.5,244.8179,1535.5,248.8179,1539.5,244.8179" style="stroke: #383838; stroke-width: 1.0;"/><line style="stroke: #383838; stroke-width: 1.5;" x1="1713.5" x2="1776" y1="244.8179" y2="244.8179"/><polygon fill="#383838" points="1766,240.8179,1776,244.8179,1766,248.8179,1770,244.8179" style="stroke: #383838; stroke-width: 1.0;"/><line style="stroke: #383838; stroke-width: 1.5;" x1="1423" x2="375" y1="185.8179" y2="185.8179"/><line style="stroke: #383838; stroke-width: 1.5;" x1="375" x2="375" y1="185.8179" y2="232.8179"/><polygon fill="#383838" points="371,222.8179,375,232.8179,379,222.8179,375,226.8179" style="stroke: #383838; stroke-width: 1.0;"/><line style="stroke: #383838; stroke-width: 1.5;" x1="1944" x2="1973" y1="244.8179" y2="244.8179"/><line style="stroke: #383838; stroke-width: 1.5;" x1="1973" x2="1973" y1="244.8179" y2="1133.116"/><polygon fill="#383838" points="1969,1123.116,1973,1133.116,1977,1123.116,1973,1127.116" style="stroke: #383838; stroke-width: 1.0;"/><line style="stroke: #383838; stroke-width: 1.5;" x1="375" x2="1973" y1="1133.116" y2="1133.116"/><line style="stroke: #383838; stroke-width: 1.5;" x1="1636" x2="2057" y1="185.8179" y2="185.8179"/><line style="stroke: #383838; stroke-width: 1.5;" x1="2057" x2="2057" y1="185.8179" y2="207.8179"/><polygon fill="#383838" points="2053,197.8179,2057,207.8179,2061,197.8179,2057,201.8179" style="stroke: #383838; stroke-width: 1.0;"/><line style="stroke: #383838; stroke-width: 1.5;" x1="957" x2="957" y1="1133.116" y2="1151.116"/><line style="stroke: #383838; stroke-width: 1.5;" x1="957" x2="1517.5" y1="1151.116" y2="1151.116"/><polygon fill="#383838" points="1507.5,1147.116,1517.5,1151.116,1507.5,1155.116,1511.5,1151.116" style="stroke: #383838; stroke-width: 1.0;"/><line style="stroke: #383838; stroke-width: 1.5;" x1="2057" x2="2057" y1="247.6152" y2="1151.116"/><line style="stroke: #383838; stroke-width: 1.5;" x1="2057" x2="1541.5" y1="1151.116" y2="1151.116"/><polygon fill="#383838" points="1551.5,1147.116,1541.5,1151.116,1551.5,1155.116,1547.5,1151.116" style="stroke: #383838; stroke-width: 1.0;"/><line style="stroke: #383838; stroke-width: 1.5;" x1="1529.5" x2="1529.5" y1="153.5947" y2="173.8179"/><polygon fill="#383838" points="1525.5,163.8179,1529.5,173.8179,1533.5,163.8179,1529.5,167.8179" style="stroke: #383838; stroke-width: 1.0;"/><line style="stroke: #383838; stroke-width: 1.5;" x1="1529.5" x2="1529.5" y1="93.7974" y2="113.7974"/><polygon fill="#383838" points="1525.5,103.7974,1529.5,113.7974,1533.5,103.7974,1529.5,107.7974" style="stroke: #383838; stroke-width: 1.0;"/><line style="stroke: #383838; stroke-width: 1.5;" x1="1621" x2="2141" y1="1195.3391" y2="1195.3391"/><polygon fill="#383838" points="2137,678.8047,2141,668.8047,2145,678.8047,2141,674.8047" style="stroke: #383838; stroke-width: 1.5;"/><line style="stroke: #383838; stroke-width: 1.5;" x1="2141" x2="2141" y1="81.7974" y2="1195.3391"/><line style="stroke: #383838; stroke-width: 1.5;" x1="2141" x2="1541.5" y1="81.7974" y2="81.7974"/><polygon fill="#383838" points="1551.5,77.7974,1541.5,81.7974,1551.5,85.7974,1547.5,81.7974" style="stroke: #383838; stroke-width: 1.0;"/><line style="stroke: #383838; stroke-width: 1.5;" x1="1529.5" x2="1529.5" y1="1163.116" y2="1183.3391"/><polygon fill="#383838" points="1525.5,1173.3391,1529.5,1183.3391,1533.5,1173.3391,1529.5,1177.3391" style="stroke: #383838; stroke-width: 1.0;"/><line style="stroke: #383838; stroke-width: 1.5;" x1="1529.5" x2="1529.5" y1="49.7974" y2="69.7974"/><polygon fill="#383838" points="1525.5,59.7974,1529.5,69.7974,1533.5,59.7974,1529.5,63.7974" style="stroke: #383838; stroke-width: 1.0;"/><line style="stroke: #383838; stroke-width: 1.5;" x1="1529.5" x2="1529.5" y1="1207.3391" y2="1242.3391"/><polygon fill="#383838" points="1525.5,1232.3391,1529.5,1242.3391,1533.5,1232.3391,1529.5,1236.3391" style="stroke: #383838; stroke-width: 1.0;"/><!--MD5=[c5bc005e1d41a49455fbe8dfa21d05ab]
@startuml

skinparam defaultFontName 微软雅黑
skinparam defaultFontSize 15
skinparam monochrome true
skinparam shadowing false

:开始;
repeat
    :输出提示信息并等待用户输入/
    if (用户输入的数字在1-9之间？) then (是)
        if (用户输入的数字为1？) then (是)
            :提示并等待用户输入用户名/
            if (用户名不为空？) then (是)
                :提示并等待用户输入密码/
                :逐位比较用户名]
                if (用户名正确？) then (是)
                    :逐位比较密码]
                    if (密码正确？) then (是)
                        :(AUTH) <- 1]
                        :提示登录成功/
                    else (否)
                        :(AUTH) <- 0]
                        :提示登录失败/
                    endif
                else (否)
                    :(AUTH) <- 0]
                    :提示登录失败/
                endif
            else (否)
                :(AUTH) <- 0]
                :提示以顾客身份登录/
            endif
        (否) elseif (用户输入的数字为2？) then (是)
            :提示并等待用户输入商品名称/
            repeat
                :枚举每个商品]
                :逐位比较商品名称]
                if (商品名称相等？) then (是)
                    :记录商品地址到GOOD]
                    :提示找到商品/
                    break
                else (否)
                endif
            repeat while (还有商品？) is (是) not (否)
            if (没有商品名称相等？) then (是)
                :提示没有找到/
            else (否)
            endif
        (否) elseif (用户输入的数字为3？) then (是)
            if (GOOD不为空？) then (是)
                if (GOOD记录的商品剩余数量不为0？) then (是)
                    :剩余数量-1]
                    :将返回地址传入变量return]
                    :跳转到计算商品推荐度处]
                    :([return]) <- 0]
                else (否)
                    :提示商品剩余数量为0/
                endif
            else (否)
                :提示还没选择商品/
            endif
        (否) elseif (用户输入的数字为4？) then (是)
            :依次计算商品的推荐度]
            if (变量return不等于0？) then (是)
                :返回到变量return指向的地址]
            else (否)
            endif
        (否) elseif (用户输入的数字为8？) then (是)
            :输出(CS)/
        else (否)
        endif
    else (否)
        :提示用户输错操作/
    endif
    repeat while (用户输入的数是不是9？) is (不是) not (是)
:结束;

@enduml

PlantUML version 1.2020.02(Sun Mar 01 18:22:07 CST 2020)
(GPL source distribution)
Java Runtime: Java(TM) SE Runtime Environment
JVM: Java HotSpot(TM) 64-Bit Server VM
Java Version: 1.8.0_211-b12
Operating System: Windows 10
Default Encoding: GBK
Language: zh
Country: CN
--></g></svg>