<?xml version="1.0" encoding="UTF-8" standalone="no"?><svg xmlns="http://www.w3.org/2000/svg" xmlns:xlink="http://www.w3.org/1999/xlink" contentScriptType="application/ecmascript" contentStyleType="text/css" height="547px" preserveAspectRatio="none" style="width:1027px;height:547px;" version="1.1" viewBox="0 0 1027 547" width="1027px" zoomAndPan="magnify"><defs/><g><!--MD5=[e4e5aa2ccfbca749cd6a275b294aad60]
cluster 二进制转十进制--><rect fill="#FFFFFF" height="231.5" style="stroke: #000000; stroke-width: 1.5;" width="144" x="853" y="304.5"/><path d="M968,305.5 L968,317.2974 L958,327.2974 L853,327.2974 " fill="none" style="stroke: #000000; stroke-width: 1.5;"/><text fill="#000000" font-family="微软雅黑" font-size="15" font-weight="bold" lengthAdjust="spacingAndGlyphs" textLength="105" x="856" y="321.3716">二进制转十进制</text><!--MD5=[73a4666ecdf1b362e217c24295037339]
cluster 十进制转二进制--><rect fill="#FFFFFF" height="88" style="stroke: #000000; stroke-width: 1.5;" width="144" x="651" y="448"/><path d="M766,449 L766,460.7974 L756,470.7974 L651,470.7974 " fill="none" style="stroke: #000000; stroke-width: 1.5;"/><text fill="#000000" font-family="微软雅黑" font-size="15" font-weight="bold" lengthAdjust="spacingAndGlyphs" textLength="105" x="654" y="464.8716">十进制转二进制</text><!--MD5=[50a27c3cb027147a0788f6e4222a53ba]
cluster 功能2新增模块--><rect fill="#FFFFFF" height="88" style="stroke: #000000; stroke-width: 1.5;" width="166" x="850" y="163.5"/><path d="M959,164.5 L959,176.2974 L949,186.2974 L850,186.2974 " fill="none" style="stroke: #000000; stroke-width: 1.5;"/><text fill="#000000" font-family="微软雅黑" font-size="15" font-weight="bold" lengthAdjust="spacingAndGlyphs" textLength="99" x="853" y="180.3716">功能2新增模块</text><!--MD5=[fb1696a45130c999ffdb7ee5a0ddfbe3]
cluster 功能6新增模块--><rect fill="#FFFFFF" height="231.5" style="stroke: #000000; stroke-width: 1.5;" width="206" x="620" y="163.5"/><path d="M729,164.5 L729,176.2974 L719,186.2974 L620,186.2974 " fill="none" style="stroke: #000000; stroke-width: 1.5;"/><text fill="#000000" font-family="微软雅黑" font-size="15" font-weight="bold" lengthAdjust="spacingAndGlyphs" textLength="99" x="623" y="180.3716">功能6新增模块</text><!--MD5=[eac2aa1eef4c05e7a20aa01328f4ee07]
cluster 主模块--><rect fill="#FFFFFF" height="227" style="stroke: #000000; stroke-width: 1.5;" width="574" x="22" y="24.5"/><path d="M77,25.5 L77,37.2974 L67,47.2974 L22,47.2974 " fill="none" style="stroke: #000000; stroke-width: 1.5;"/><text fill="#000000" font-family="微软雅黑" font-size="15" font-weight="bold" lengthAdjust="spacingAndGlyphs" textLength="45" x="25" y="41.3716">主模块</text><ellipse cx="925.033" cy="359.4988" fill="#F8F8F8" rx="56.033" ry="16.9988" style="stroke: #383838; stroke-width: 1.5;"/><text fill="#000000" font-family="微软雅黑" font-size="15" lengthAdjust="spacingAndGlyphs" textLength="75" x="887.533" y="365.8975">二转十进制</text><ellipse cx="924.7904" cy="502.9988" fill="#F8F8F8" rx="51.7904" ry="16.9988" style="stroke: #383838; stroke-width: 1.5;"/><text fill="#000000" font-family="微软雅黑" font-size="15" lengthAdjust="spacingAndGlyphs" textLength="69" x="890.2904" y="509.3975">二转P进制</text><ellipse cx="723.033" cy="502.9988" fill="#F8F8F8" rx="56.033" ry="16.9988" style="stroke: #383838; stroke-width: 1.5;"/><text fill="#000000" font-family="微软雅黑" font-size="15" lengthAdjust="spacingAndGlyphs" textLength="75" x="685.533" y="509.3975">十转二进制</text><ellipse cx="933.1396" cy="218.4988" fill="#F8F8F8" rx="66.6396" ry="16.9988" style="stroke: #383838; stroke-width: 1.5;"/><text fill="#000000" font-family="微软雅黑" font-size="15" lengthAdjust="spacingAndGlyphs" textLength="90" x="888.1396" y="224.8975">输出商品信息</text><ellipse cx="723.1396" cy="218.4988" fill="#F8F8F8" rx="66.6396" ry="16.9988" style="stroke: #383838; stroke-width: 1.5;"/><text fill="#000000" font-family="微软雅黑" font-size="15" lengthAdjust="spacingAndGlyphs" textLength="90" x="678.1396" y="224.8975">修改商品信息</text><ellipse cx="723.2009" cy="359.7402" fill="#F8F8F8" rx="86.7009" ry="19.7402" style="stroke: #383838; stroke-width: 1.5;"/><text fill="#000000" font-family="微软雅黑" font-size="15" lengthAdjust="spacingAndGlyphs" textLength="135" x="655.7009" y="366.1389">输出分隔符并读入数</text><ellipse cx="357.0772" cy="79.4988" fill="#F8F8F8" rx="30.5772" ry="16.9988" style="stroke: #383838; stroke-width: 1.5;"/><text fill="#000000" font-family="微软雅黑" font-size="15" lengthAdjust="spacingAndGlyphs" textLength="39" x="337.5772" y="85.8975">功能1</text><ellipse cx="442.033" cy="218.4988" fill="#F8F8F8" rx="56.033" ry="16.9988" style="stroke: #383838; stroke-width: 1.5;"/><text fill="#000000" font-family="微软雅黑" font-size="15" lengthAdjust="spacingAndGlyphs" textLength="75" x="404.533" y="224.8975">字符串比较</text><ellipse cx="549.0772" cy="79.4988" fill="#F8F8F8" rx="30.5772" ry="16.9988" style="stroke: #383838; stroke-width: 1.5;"/><text fill="#000000" font-family="微软雅黑" font-size="15" lengthAdjust="spacingAndGlyphs" textLength="39" x="529.5772" y="85.8975">功能2</text><ellipse cx="261.0772" cy="79.4988" fill="#F8F8F8" rx="30.5772" ry="16.9988" style="stroke: #383838; stroke-width: 1.5;"/><text fill="#000000" font-family="微软雅黑" font-size="15" lengthAdjust="spacingAndGlyphs" textLength="39" x="241.5772" y="85.8975">功能3</text><ellipse cx="261.0772" cy="218.4988" fill="#F8F8F8" rx="30.5772" ry="16.9988" style="stroke: #383838; stroke-width: 1.5;"/><text fill="#000000" font-family="微软雅黑" font-size="15" lengthAdjust="spacingAndGlyphs" textLength="39" x="241.5772" y="224.8975">功能4</text><ellipse cx="453.0772" cy="79.4988" fill="#F8F8F8" rx="30.5772" ry="16.9988" style="stroke: #383838; stroke-width: 1.5;"/><text fill="#000000" font-family="微软雅黑" font-size="15" lengthAdjust="spacingAndGlyphs" textLength="39" x="433.5772" y="85.8975">功能6</text><ellipse cx="165.0772" cy="79.4988" fill="#F8F8F8" rx="30.5772" ry="16.9988" style="stroke: #383838; stroke-width: 1.5;"/><text fill="#000000" font-family="微软雅黑" font-size="15" lengthAdjust="spacingAndGlyphs" textLength="39" x="145.5772" y="85.8975">功能8</text><ellipse cx="69.0772" cy="79.4988" fill="#F8F8F8" rx="30.5772" ry="16.9988" style="stroke: #383838; stroke-width: 1.5;"/><text fill="#000000" font-family="微软雅黑" font-size="15" lengthAdjust="spacingAndGlyphs" textLength="39" x="49.5772" y="85.8975">功能9</text><!--MD5=[a60bd737fac93e71700504b5f58782da]
link 二转十进制 to 二转P进制--><path d="M925,376.732 C925,402.427 925,452.4669 925,480.9088 " fill="none" id="二转十进制-&gt;二转P进制" style="stroke: #383838; stroke-width: 1.0;"/><polygon fill="#383838" points="925,485.9575,929,476.9575,925,480.9575,921,476.9575,925,485.9575" style="stroke: #383838; stroke-width: 1.0;"/><text fill="#000000" font-family="微软雅黑" font-size="15" lengthAdjust="spacingAndGlyphs" textLength="30" x="926" y="427.8716">调用</text><!--MD5=[a92d639de15407139630ea926555f88e]
link 输出商品信息 to 二转十进制--><path d="M932.067,235.717 C930.621,260.827 927.842,309.127 926.233,337.08 " fill="none" id="输出商品信息-&gt;二转十进制" style="stroke: #383838; stroke-width: 1.0;"/><polygon fill="#383838" points="925.927,342.386,930.4373,333.6306,926.2142,337.3943,922.4505,333.1711,925.927,342.386" style="stroke: #383838; stroke-width: 1.0;"/><text fill="#000000" font-family="微软雅黑" font-size="15" lengthAdjust="spacingAndGlyphs" textLength="30" x="931" y="284.3716">调用</text><!--MD5=[e189f1d4366d35106bedc3c219db1e94]
link 修改商品信息 to 输出分隔符并读入数--><path d="M723,235.717 C723,260.123 723,306.436 723,334.68 " fill="none" id="修改商品信息-&gt;输出分隔符并读入数" style="stroke: #383838; stroke-width: 1.0;"/><polygon fill="#383838" points="723,339.735,727,330.735,723,334.735,719,330.735,723,339.735" style="stroke: #383838; stroke-width: 1.0;"/><text fill="#000000" font-family="微软雅黑" font-size="15" lengthAdjust="spacingAndGlyphs" textLength="30" x="724" y="284.3716">调用</text><!--MD5=[dcbb0f2a66f715fa30f17bbbad885bb1]
link 输出分隔符并读入数 to 十转二进制--><path d="M723,379.29 C723,405.508 723,452.9428 723,480.5262 " fill="none" id="输出分隔符并读入数-&gt;十转二进制" style="stroke: #383838; stroke-width: 1.0;"/><polygon fill="#383838" points="723,485.766,727,476.766,723,480.766,719,476.766,723,485.766" style="stroke: #383838; stroke-width: 1.0;"/><text fill="#000000" font-family="微软雅黑" font-size="15" lengthAdjust="spacingAndGlyphs" textLength="30" x="724" y="427.8716">调用</text><!--MD5=[a58935bbeb4291e2a4eac53847b397c0]
link 修改商品信息 to 二转十进制--><path d="M745.002,234.64 C782.591,260.506 858.992,313.079 899.095,340.674 " fill="none" id="修改商品信息-&gt;二转十进制" style="stroke: #383838; stroke-width: 1.0;"/><polygon fill="#383838" points="903.331,343.589,898.1846,335.1917,899.2121,340.7545,893.6493,341.782,903.331,343.589" style="stroke: #383838; stroke-width: 1.0;"/><text fill="#000000" font-family="微软雅黑" font-size="15" lengthAdjust="spacingAndGlyphs" textLength="30" x="825" y="284.3716">调用</text><!--MD5=[8dd645b95268ac5cb2835403c4252058]
link 功能1 to 字符串比较--><path d="M366.421,95.685 C381.766,120.417 412.167,169.417 429.368,197.141 " fill="none" id="功能1-&gt;字符串比较" style="stroke: #383838; stroke-width: 1.0;"/><polygon fill="#383838" points="432.011,201.4,430.6655,191.6435,429.3751,197.1512,423.8674,195.8608,432.011,201.4" style="stroke: #383838; stroke-width: 1.0;"/><text fill="#000000" font-family="微软雅黑" font-size="15" lengthAdjust="spacingAndGlyphs" textLength="30" x="398" y="143.3716">调用</text><!--MD5=[3d1868b5cbb969f81bf4acd4d10babbe]
link 功能2 to 字符串比较--><path d="M537.345,95.422 C518.014,120.174 479.303,169.738 457.625,197.495 " fill="none" id="功能2-&gt;字符串比较" style="stroke: #383838; stroke-width: 1.0;"/><polygon fill="#383838" points="454.297,201.755,462.9902,197.126,457.3755,197.8151,456.6864,192.2004,454.297,201.755" style="stroke: #383838; stroke-width: 1.0;"/><text fill="#000000" font-family="微软雅黑" font-size="15" lengthAdjust="spacingAndGlyphs" textLength="30" x="513" y="143.3716">调用</text><!--MD5=[522c6cceb38ee6ef547b2d7f1a8862ee]
link 功能2 to 输出商品信息--><path d="M577.721,85.702 C628.942,95.539 738.85,119.188 826,155.5 C854.863,167.526 885.517,185.936 906.582,199.573 " fill="none" id="功能2-&gt;输出商品信息" style="stroke: #383838; stroke-width: 1.0;"/><polygon fill="#383838" points="910.927,202.406,905.5732,194.1394,906.7388,199.6748,901.2034,200.8404,910.927,202.406" style="stroke: #383838; stroke-width: 1.0;"/><text fill="#000000" font-family="微软雅黑" font-size="15" lengthAdjust="spacingAndGlyphs" textLength="30" x="806" y="143.3716">调用</text><!--MD5=[f1f62289444721013f149381e3eb1f57]
link 功能3 to 功能4--><path d="M261,96.754 C261,121.473 261,168.539 261,196.041 " fill="none" id="功能3-&gt;功能4" style="stroke: #383838; stroke-width: 1.0;"/><polygon fill="#383838" points="261,201.267,265,192.267,261,196.267,257,192.267,261,201.267" style="stroke: #383838; stroke-width: 1.0;"/><text fill="#000000" font-family="微软雅黑" font-size="15" lengthAdjust="spacingAndGlyphs" textLength="30" x="262" y="143.3716">跳转</text><!--MD5=[8ffb4b02d91a46c3986286aacc3d0ed9]
link 功能6 to 修改商品信息--><path d="M475.974,90.749 C496.146,99.85 526.213,113.659 552,126.5 C601.554,151.175 658.082,181.742 692.127,200.422 " fill="none" id="功能6-&gt;修改商品信息" style="stroke: #383838; stroke-width: 1.0;"/><polygon fill="#383838" points="696.574,202.865,690.6121,195.0256,692.1918,200.4574,686.76,202.0371,696.574,202.865" style="stroke: #383838; stroke-width: 1.0;"/><text fill="#000000" font-family="微软雅黑" font-size="15" lengthAdjust="spacingAndGlyphs" textLength="30" x="591" y="143.3716">调用</text><!--MD5=[63724703f58368f8fa2b8a63dd22ae78]
@startuml

skinparam defaultFontName 微软雅黑
skinparam defaultFontSize 15
skinparam monochrome true
skinparam shadowing false

frame 二进制转十进制 {
(二转十进制) - -> (二转P进制): 调用
}
frame 十进制转二进制 {
(十转二进制)
}
frame 功能2新增模块 {
(输出商品信息) - -> (二转十进制): 调用
}
frame 功能6新增模块 {
(修改商品信息) - -> (输出分隔符并读入数): 调用
(输出分隔符并读入数) - -> (十转二进制): 调用
(修改商品信息) - -> (二转十进制): 调用
}
frame 主模块 {
(功能1) - -> (字符串比较): 调用
(功能2) - -> (字符串比较): 调用
(功能2) - -> (输出商品信息): 调用
(功能3) - -> (功能4): 跳转
(功能6) - -> (修改商品信息): 调用
(功能8)
(功能9)
}

@enduml

PlantUML version 1.2020.02(Sun Mar 01 18:22:07 CST 2020)
(GPL source distribution)
Java Runtime: Java(TM) SE Runtime Environment
JVM: Java HotSpot(TM) 64-Bit Server VM
Java Version: 1.8.0_211-b12
Operating System: Windows 10
Default Encoding: GBK
Language: zh
Country: CN
--></g></svg>